G04 Layer_Color=0*
%FSLAX45Y45*%
%MOMM*%
%TF.FileFunction,Plated,1,2,PTH,Drill*%
%TF.Part,Single*%
G01*
G75*
%TA.AperFunction,ComponentDrill*%
%ADD90C,3.20000*%
%ADD91C,0.80000*%
%ADD92C,0.92000*%
%ADD93C,2.30000*%
%TA.AperFunction,ViaDrill,NotFilled*%
%ADD94C,0.40000*%
%ADD95C,0.60000*%
%ADD96C,0.71120*%
D90*
X12690000Y4560000D02*
D03*
X13489999D02*
D03*
X11270000D02*
D03*
X12070000D02*
D03*
D91*
X12900000Y5717000D02*
D03*
Y5463000D02*
D03*
D92*
X15010001Y6920000D02*
D03*
X15710001D02*
D03*
X15460001D02*
D03*
X15260001D02*
D03*
D93*
X16017000Y7191000D02*
D03*
X14703000D02*
D03*
D94*
X15710001Y5045000D02*
D03*
Y5195000D02*
D03*
X15560001D02*
D03*
Y5045000D02*
D03*
X15860001D02*
D03*
Y5195000D02*
D03*
X13230000Y7110000D02*
D03*
X13225000Y6844999D02*
D03*
X13460001Y7170000D02*
D03*
D95*
X15600008Y7200004D02*
D03*
X15400008D02*
D03*
X15200008D02*
D03*
X14200008Y5600003D02*
D03*
X11600006Y4800003D02*
D03*
X11200006Y5600003D02*
D03*
X11300006Y5400003D02*
D03*
X12440000Y5120000D02*
D03*
X14870000Y5360000D02*
D03*
X13600000Y6830000D02*
D03*
X13880000Y5080000D02*
D03*
X16180000Y4630000D02*
D03*
X16060001Y4530000D02*
D03*
X16180000Y4770000D02*
D03*
Y4910000D02*
D03*
Y5050000D02*
D03*
X16060001Y5360000D02*
D03*
X16039999Y5190000D02*
D03*
X16170000Y5490000D02*
D03*
X16039999Y5870000D02*
D03*
X11830000Y6530000D02*
D03*
X11730000Y6970000D02*
D03*
X11470000Y6210000D02*
D03*
X11330000D02*
D03*
X11610000D02*
D03*
X11750000D02*
D03*
X12540000Y6420000D02*
D03*
X13270000Y5380000D02*
D03*
X15400000Y6400000D02*
D03*
Y6190000D02*
D03*
X15650000Y6430000D02*
D03*
Y6300000D02*
D03*
X15510001D02*
D03*
X15510001Y4680000D02*
D03*
X15370000D02*
D03*
X15360001Y4540000D02*
D03*
X16039999Y5050000D02*
D03*
Y4910000D02*
D03*
X14030000Y6780000D02*
D03*
X13730000Y6920000D02*
D03*
X13970000Y6910000D02*
D03*
X12700000Y6810000D02*
D03*
Y7200000D02*
D03*
X15710001Y5850000D02*
D03*
X15389999D02*
D03*
X15130000Y6680000D02*
D03*
X15650000Y6660000D02*
D03*
X13630000Y6320000D02*
D03*
X13880000Y5370000D02*
D03*
X13910001Y5510000D02*
D03*
X13710001Y5730000D02*
D03*
X13850000D02*
D03*
X13120000Y5080000D02*
D03*
X12839999Y5120000D02*
D03*
X13280000Y5800000D02*
D03*
X13130000Y5830000D02*
D03*
X15039999Y5500000D02*
D03*
X14700000Y6300000D02*
D03*
X14480000D02*
D03*
X14589999Y5870000D02*
D03*
X14710001Y5740000D02*
D03*
X14460001Y6140000D02*
D03*
X14589999Y6670000D02*
D03*
X14460001Y5980000D02*
D03*
Y6460000D02*
D03*
X13489999Y6450000D02*
D03*
X13350000D02*
D03*
X11100000Y7340000D02*
D03*
Y7200000D02*
D03*
Y7060000D02*
D03*
X15230000Y4730000D02*
D03*
Y4590000D02*
D03*
X16180000Y4360000D02*
D03*
X11210000Y6060000D02*
D03*
X11630000D02*
D03*
X11780000D02*
D03*
X12040000Y6790000D02*
D03*
X11870000D02*
D03*
X12480000D02*
D03*
Y6940000D02*
D03*
X11260000Y6740000D02*
D03*
Y6870000D02*
D03*
X14730000Y6670000D02*
D03*
X14660001Y6790000D02*
D03*
X13160001Y6310000D02*
D03*
X13220000Y6430000D02*
D03*
X15000000Y4610000D02*
D03*
X13920000Y5880000D02*
D03*
D96*
X14339999Y7320000D02*
D03*
X13950000D02*
D03*
%TF.MD5,bfd838daf3cba87b98d407d7e86f9c85*%
M02*
