G04 Layer_Physical_Order=1*
G04 Layer_Color=255*
%FSLAX45Y45*%
%MOMM*%
%TF.FileFunction,Copper,L1,Top,Signal*%
%TF.Part,Single*%
G01*
G75*
%TA.AperFunction,SMDPad,CuDef*%
%ADD10R,5.00000X3.40000*%
%ADD11R,0.30000X1.20000*%
%ADD12R,3.85000X5.50000*%
%ADD13O,0.45000X1.40000*%
%ADD14O,1.40000X0.45000*%
%ADD15R,0.60000X1.20000*%
%ADD16R,0.25000X0.75000*%
%ADD17R,2.40000X0.79000*%
%ADD18O,2.00000X1.00000*%
%ADD19R,0.90000X0.80000*%
%TA.AperFunction,ConnectorPad*%
%ADD20R,0.90000X0.80000*%
%TA.AperFunction,SMDPad,CuDef*%
%ADD21R,0.80000X0.90000*%
%ADD22R,1.20000X1.40000*%
%ADD23R,1.00000X1.30000*%
%ADD24R,0.90000X0.95000*%
%ADD25R,0.95000X0.90000*%
%ADD26R,1.10000X2.60000*%
%ADD27R,1.70000X1.10000*%
%ADD28R,1.10000X1.70000*%
%ADD29R,2.60000X1.10000*%
%ADD30R,3.50000X4.10000*%
%ADD31O,1.00000X2.00000*%
%TA.AperFunction,Conductor*%
%ADD32C,0.25000*%
%ADD33C,0.30000*%
%ADD34C,0.50000*%
%ADD35C,0.40000*%
%ADD36C,0.80000*%
%ADD37C,0.20000*%
%ADD38C,1.00000*%
%ADD39C,0.60000*%
%ADD40C,1.20000*%
%ADD41C,3.00000*%
%ADD42C,2.00000*%
%TA.AperFunction,ComponentPad*%
G04:AMPARAMS|DCode=43|XSize=5mm|YSize=5mm|CornerRadius=0mm|HoleSize=0mm|Usage=FLASHONLY|Rotation=180.000|XOffset=0mm|YOffset=0mm|HoleType=Round|Shape=Octagon|*
%AMOCTAGOND43*
4,1,8,-2.50000,1.25000,-2.50000,-1.25000,-1.25000,-2.50000,1.25000,-2.50000,2.50000,-1.25000,2.50000,1.25000,1.25000,2.50000,-1.25000,2.50000,-2.50000,1.25000,0.0*
%
%ADD43OCTAGOND43*%

G04:AMPARAMS|DCode=44|XSize=1.6mm|YSize=1.6mm|CornerRadius=0mm|HoleSize=0mm|Usage=FLASHONLY|Rotation=270.000|XOffset=0mm|YOffset=0mm|HoleType=Round|Shape=Octagon|*
%AMOCTAGOND44*
4,1,8,-0.40000,-0.80000,0.40000,-0.80000,0.80000,-0.40000,0.80000,0.40000,0.40000,0.80000,-0.40000,0.80000,-0.80000,0.40000,-0.80000,-0.40000,-0.40000,-0.80000,0.0*
%
%ADD44OCTAGOND44*%

%ADD45O,1.50000X2.00000*%
%ADD46R,1.50000X2.00000*%
%ADD47C,4.50000*%
%TA.AperFunction,ViaPad*%
%ADD48C,0.80000*%
%ADD49C,1.20000*%
%ADD50C,1.27000*%
G36*
X14360001Y5559533D02*
Y5415392D01*
X13989999D01*
X13982198Y5413839D01*
X13975581Y5409419D01*
X13971161Y5402803D01*
X13969608Y5395000D01*
Y5334495D01*
X13916289Y5281175D01*
X13759999D01*
X13756059Y5280392D01*
X13746469D01*
X13743430Y5283431D01*
X13732680Y5290614D01*
X13720000Y5293136D01*
X13686725D01*
X13653432Y5326430D01*
X13653432Y5326430D01*
X13642891Y5336970D01*
Y5360500D01*
X13641339Y5368303D01*
X13636919Y5374919D01*
X13630302Y5379339D01*
X13622499Y5380891D01*
X13597501D01*
X13589696Y5379339D01*
X13585001Y5376201D01*
X13580302Y5379339D01*
X13572499Y5380891D01*
X13547501D01*
X13539696Y5379339D01*
X13535001Y5376201D01*
X13530302Y5379339D01*
X13522499Y5380891D01*
X13497501D01*
X13489696Y5379339D01*
X13484999Y5376201D01*
X13480302Y5379339D01*
X13472499Y5380891D01*
X13447501D01*
X13439696Y5379339D01*
X13434999Y5376201D01*
X13430302Y5379339D01*
X13422499Y5380891D01*
X13397499D01*
X13389696Y5379339D01*
X13383080Y5374919D01*
X13378661Y5368303D01*
X13377107Y5360500D01*
Y5336970D01*
X13353275Y5313137D01*
X13000000D01*
X12987318Y5310614D01*
X12986986Y5310392D01*
X12925000D01*
X12917197Y5308840D01*
X12910580Y5304419D01*
X12906161Y5297803D01*
X12904608Y5290000D01*
Y5283136D01*
X12863725D01*
X12793136Y5353726D01*
Y5646741D01*
X12813136Y5655025D01*
X12845580Y5622582D01*
X12845581Y5622581D01*
X12852197Y5618160D01*
X12860001Y5616608D01*
X12939999D01*
X12947804Y5618160D01*
X12954419Y5622581D01*
X12994418Y5662580D01*
X12994418Y5662581D01*
X12998840Y5669196D01*
X13000392Y5677000D01*
Y5681314D01*
X13048219D01*
X13084312Y5645219D01*
Y5580392D01*
X13074998D01*
X13067197Y5578839D01*
X13060580Y5574419D01*
X13056160Y5567803D01*
X13054607Y5560000D01*
Y5480000D01*
X13056160Y5472196D01*
X13060580Y5465581D01*
X13067197Y5461160D01*
X13074998Y5459608D01*
X13164999D01*
X13172803Y5461160D01*
X13178685Y5465091D01*
X13179890Y5465581D01*
X13200108Y5465580D01*
X13201314Y5465090D01*
X13207196Y5461160D01*
X13214999Y5459608D01*
X13305000D01*
X13312804Y5461160D01*
X13319418Y5465580D01*
X13323839Y5472196D01*
X13325391Y5480000D01*
Y5483863D01*
X13377107D01*
Y5479500D01*
X13378661Y5471696D01*
X13383080Y5465080D01*
X13389696Y5460660D01*
X13397499Y5459108D01*
X13422499D01*
X13430302Y5460660D01*
X13434999Y5463798D01*
X13439696Y5460660D01*
X13447501Y5459108D01*
X13472499D01*
X13480302Y5460660D01*
X13486919Y5465080D01*
X13491339Y5471696D01*
X13492891Y5479500D01*
Y5515769D01*
X13493137Y5517000D01*
Y5583945D01*
X13509560Y5595136D01*
X13526863Y5587505D01*
Y5517000D01*
X13527107Y5515769D01*
Y5479500D01*
X13528661Y5471696D01*
X13533080Y5465080D01*
X13539696Y5460660D01*
X13547501Y5459108D01*
X13572499D01*
X13580302Y5460660D01*
X13585001Y5463798D01*
X13589696Y5460660D01*
X13597501Y5459108D01*
X13622499D01*
X13630302Y5460660D01*
X13636919Y5465080D01*
X13641339Y5471696D01*
X13642891Y5479500D01*
Y5488531D01*
X13650430Y5493569D01*
X13703725Y5546863D01*
X13720000D01*
X13732681Y5549386D01*
X13743431Y5556569D01*
X13746471Y5559608D01*
X13756059D01*
X13760001Y5558824D01*
X13763939Y5559608D01*
X13805000D01*
X13812804Y5561160D01*
X13819418Y5565580D01*
X13823839Y5572196D01*
X13825391Y5580000D01*
Y5618876D01*
X13856708Y5650193D01*
X13870885Y5652059D01*
X13890344Y5660120D01*
X13907057Y5672943D01*
X13919881Y5689655D01*
X13927940Y5709116D01*
X13930690Y5730000D01*
X13927940Y5750884D01*
X13919881Y5770345D01*
X13912363Y5780143D01*
X13917348Y5792654D01*
X13922272Y5799609D01*
X13940884Y5802059D01*
X13960345Y5810120D01*
X13977057Y5822943D01*
X13989880Y5839655D01*
X13991811Y5844314D01*
X14075218D01*
X14360001Y5559533D01*
D02*
G37*
G36*
X16149216Y5873107D02*
Y5810392D01*
X16145000D01*
X16137196Y5808840D01*
X16130580Y5804419D01*
X16126160Y5797803D01*
X16124608Y5790000D01*
Y5710000D01*
X16126160Y5702196D01*
X16130580Y5695581D01*
X16137196Y5691160D01*
X16145000Y5689608D01*
Y5670392D01*
X16137196Y5668840D01*
X16130580Y5664419D01*
X16126160Y5657804D01*
X16124608Y5650000D01*
X16105392Y5650000D01*
X16103841Y5657803D01*
X16099420Y5664419D01*
X16092804Y5668839D01*
X16085001Y5670391D01*
X15995001D01*
X15987196Y5668839D01*
X15980582Y5664419D01*
X15976161Y5657803D01*
X15974765Y5650783D01*
X15955235D01*
X15953841Y5657803D01*
X15949419Y5664419D01*
X15942804Y5668839D01*
X15935001Y5670392D01*
Y5689608D01*
X15942804Y5691160D01*
X15949419Y5695580D01*
X15953841Y5702196D01*
X15955392Y5710000D01*
Y5790000D01*
X15953841Y5797803D01*
X15949419Y5804419D01*
X15942804Y5808839D01*
X15935001Y5810391D01*
X15930783D01*
Y5873106D01*
X15996893Y5939216D01*
X16083107D01*
X16149216Y5873107D01*
D02*
G37*
G36*
X15511160Y5962196D02*
X15515581Y5955580D01*
X15522195Y5951160D01*
X15530000Y5949608D01*
X15622716D01*
X15628661Y5943662D01*
X15628661Y5943661D01*
X15641891Y5934821D01*
X15657500Y5931716D01*
X15657501Y5931716D01*
X15734686D01*
X15747501Y5929167D01*
X15842500D01*
X15844241Y5929514D01*
X15856268Y5911514D01*
X15852321Y5905607D01*
X15849216Y5890000D01*
X15849216Y5889998D01*
Y5810391D01*
X15845000D01*
X15837196Y5808839D01*
X15830582Y5804419D01*
X15826160Y5797803D01*
X15824763Y5790783D01*
X15790001D01*
X15789999Y5790783D01*
X15774393Y5787679D01*
X15761162Y5778838D01*
X15742918Y5760595D01*
X15739999Y5761175D01*
X15345340D01*
X15311176Y5795339D01*
Y5917060D01*
X15322501Y5931716D01*
X15338107Y5934821D01*
X15351340Y5943661D01*
X15357285Y5949608D01*
X15470000D01*
X15477803Y5951160D01*
X15484419Y5955580D01*
X15488840Y5962196D01*
X15490392Y5969999D01*
X15509608D01*
X15511160Y5962196D01*
D02*
G37*
G36*
X12621161Y4831162D02*
X12621162Y4831162D01*
X12634393Y4822321D01*
X12650000Y4819216D01*
X12650001Y4819216D01*
X13123106D01*
X13224315Y4718008D01*
X13225581Y4699419D01*
X13221159Y4692804D01*
X13219608Y4685000D01*
Y4435000D01*
X13221159Y4427196D01*
X13225581Y4420581D01*
X13335184Y4310978D01*
X13326900Y4290978D01*
X12233101D01*
X12224817Y4310978D01*
X12334419Y4420580D01*
X12334419Y4420581D01*
X12338840Y4427196D01*
X12340392Y4435000D01*
Y4685000D01*
X12338840Y4692804D01*
X12334419Y4699419D01*
X12310823Y4723016D01*
Y4850000D01*
X12602324D01*
X12621161Y4831162D01*
D02*
G37*
G36*
X13626569Y5176569D02*
X13637318Y5169386D01*
X13650000Y5166863D01*
X13699722D01*
X13700580Y5165580D01*
X13707196Y5161160D01*
X13714999Y5159608D01*
X13756059D01*
X13759999Y5158824D01*
X13917538D01*
X13969608Y5106755D01*
Y5034495D01*
X13910995Y4975882D01*
X13710217D01*
X13708839Y4982804D01*
X13704419Y4989420D01*
X13697804Y4993840D01*
X13689999Y4995392D01*
X13665912D01*
X13663942Y5015392D01*
X13667802Y5016160D01*
X13674419Y5020581D01*
X13678841Y5027196D01*
X13680392Y5035000D01*
Y5125000D01*
X13678841Y5132803D01*
X13674419Y5139419D01*
X13667802Y5143839D01*
X13660001Y5145392D01*
X13601469D01*
X13593137Y5153726D01*
Y5183870D01*
X13611613Y5191524D01*
X13626569Y5176569D01*
D02*
G37*
G36*
X15842030Y5500377D02*
X15842075Y5499964D01*
X15839531Y5496156D01*
X15836813Y5482500D01*
Y5400000D01*
X15837108Y5398522D01*
Y5340000D01*
X15838660Y5332196D01*
X15843082Y5325580D01*
X15849696Y5321160D01*
X15857500Y5319608D01*
X15887500D01*
X15895303Y5321160D01*
X15905000Y5324514D01*
X15914697Y5321160D01*
X15922501Y5319608D01*
X15952499D01*
X15960304Y5321160D01*
X15966212Y5325108D01*
X15967084Y5325565D01*
X15988475Y5323627D01*
X15990120Y5319655D01*
X16002943Y5302943D01*
X16019655Y5290120D01*
X16039116Y5282059D01*
X16060001Y5279309D01*
X16080884Y5282059D01*
X16100345Y5290120D01*
X16104608Y5293391D01*
X16111931Y5292149D01*
X16125725Y5284385D01*
X16126160Y5282196D01*
X16130580Y5275581D01*
X16137196Y5271160D01*
X16145000Y5269608D01*
X16234999D01*
X16249022Y5253093D01*
X16249022Y4290978D01*
X15933624D01*
X15925970Y4309456D01*
X15953258Y4336742D01*
X15953259Y4336743D01*
X15956123Y4339608D01*
X15975000D01*
X15982803Y4341160D01*
X15989420Y4345580D01*
X15993840Y4352196D01*
X15995392Y4360000D01*
Y4440000D01*
X15993840Y4447803D01*
X15989420Y4454419D01*
X15987001Y4456035D01*
X15985938Y4471637D01*
X15987482Y4477937D01*
X15994473Y4480881D01*
X16002620Y4473306D01*
X16002621Y4473304D01*
X16002625Y4473302D01*
X16002940Y4472946D01*
X16002943Y4472943D01*
X16019655Y4460120D01*
X16039116Y4452059D01*
X16060001Y4449309D01*
X16080884Y4452059D01*
X16100345Y4460120D01*
X16117056Y4472943D01*
X16129880Y4489654D01*
X16137941Y4509115D01*
X16140691Y4530000D01*
X16137941Y4550884D01*
X16129880Y4570345D01*
X16117056Y4587056D01*
X16100345Y4599879D01*
X16080884Y4607940D01*
X16060001Y4610690D01*
X16039116Y4607940D01*
X16019655Y4599879D01*
X16011946Y4593964D01*
X16011034Y4593654D01*
X15989420Y4594419D01*
X15982803Y4598839D01*
X15979010Y4599594D01*
X15974564Y4610489D01*
X15974136Y4620391D01*
X15974419Y4620580D01*
X15978841Y4627196D01*
X15980392Y4634999D01*
Y4724999D01*
X15978841Y4732803D01*
X15974419Y4739419D01*
X15967804Y4743839D01*
X15960001Y4745391D01*
X15908186D01*
Y4840000D01*
X15907892Y4841477D01*
Y4900000D01*
X15906340Y4907803D01*
X15901920Y4914419D01*
X15895303Y4918839D01*
X15887500Y4920391D01*
X15857500D01*
X15849696Y4918839D01*
X15843082Y4914419D01*
X15836919D01*
X15830304Y4918839D01*
X15822501Y4920391D01*
X15792500D01*
X15784695Y4918839D01*
X15778081Y4914419D01*
X15773660Y4907803D01*
X15772108Y4900000D01*
Y4841477D01*
X15771814Y4840000D01*
Y4745391D01*
X15739999D01*
X15732196Y4743839D01*
X15725581Y4739419D01*
X15721159Y4732803D01*
X15719608Y4724999D01*
Y4683939D01*
X15718825Y4679999D01*
Y4595391D01*
X15710001D01*
X15702197Y4593839D01*
X15695581Y4589419D01*
X15691161Y4582803D01*
X15689607Y4574999D01*
Y4476123D01*
X15636743Y4423258D01*
X15636742Y4423257D01*
X15604660Y4391175D01*
X15375340D01*
X15323257Y4443257D01*
X15323257Y4443258D01*
X15273257Y4493257D01*
X15273257Y4493257D01*
X15253410Y4506519D01*
X15230000Y4511175D01*
X15189999D01*
X15186740Y4510527D01*
X15171326Y4516911D01*
X15150000Y4519719D01*
Y4824608D01*
X15254926D01*
X15314766Y4764766D01*
X15326343Y4757031D01*
X15339999Y4754314D01*
X15530000D01*
X15543655Y4757031D01*
X15547513Y4759608D01*
X15562500D01*
X15570303Y4761160D01*
X15576920Y4765581D01*
X15581340Y4772196D01*
X15582892Y4780000D01*
Y4806023D01*
X15583186Y4807500D01*
Y4892500D01*
X15582892Y4893977D01*
Y4900000D01*
X15581340Y4907803D01*
X15576920Y4914419D01*
X15573360Y4916798D01*
X15572734Y4917734D01*
X15565234Y4925234D01*
X15553656Y4932969D01*
X15539999Y4935686D01*
X15412280D01*
X15390392Y4957575D01*
Y5330000D01*
X15450128D01*
X15453081Y5325580D01*
X15459695Y5321160D01*
X15467500Y5319608D01*
X15497501D01*
X15505304Y5321160D01*
X15514999Y5324514D01*
X15524696Y5321160D01*
X15532500Y5319608D01*
X15562500D01*
X15570303Y5321160D01*
X15576920Y5325580D01*
X15583081D01*
X15589696Y5321160D01*
X15597501Y5319608D01*
X15627499D01*
X15635304Y5321160D01*
X15645000Y5324514D01*
X15654697Y5321160D01*
X15662500Y5319608D01*
X15692500D01*
X15700304Y5321160D01*
X15706918Y5325580D01*
X15713081D01*
X15719696Y5321160D01*
X15727499Y5319608D01*
X15757500D01*
X15765303Y5321160D01*
X15771919Y5325580D01*
X15776340Y5332196D01*
X15777892Y5340000D01*
Y5398522D01*
X15778186Y5400000D01*
Y5499608D01*
X15785001D01*
X15792804Y5501160D01*
X15799419Y5505581D01*
X15803841Y5512196D01*
X15805235Y5519216D01*
X15831194D01*
X15842030Y5500377D01*
D02*
G37*
G36*
X12904314Y7085563D02*
Y6898931D01*
X12895000Y6880392D01*
X12805000D01*
X12797196Y6878840D01*
X12790581Y6874419D01*
X12786160Y6867804D01*
X12785241Y6863180D01*
X12776433Y6858862D01*
X12764608Y6857215D01*
X12757057Y6867057D01*
X12740345Y6879880D01*
X12720884Y6887941D01*
X12700000Y6890690D01*
X12679116Y6887941D01*
X12659655Y6879880D01*
X12642943Y6867057D01*
X12630120Y6850345D01*
X12622059Y6830884D01*
X12619310Y6810000D01*
X12622059Y6789116D01*
X12630120Y6769655D01*
X12640266Y6756432D01*
X12640355Y6756208D01*
X12640581Y6734419D01*
X12636160Y6727804D01*
X12634608Y6720000D01*
Y6640000D01*
X12636160Y6632197D01*
X12640581Y6625581D01*
X12647196Y6621161D01*
X12655000Y6619609D01*
Y6600392D01*
X12647196Y6598840D01*
X12640581Y6594420D01*
X12636160Y6587804D01*
X12634608Y6580001D01*
X12615392Y6580000D01*
X12613840Y6587804D01*
X12609420Y6594419D01*
X12602804Y6598840D01*
X12595000Y6600392D01*
X12505001D01*
X12497197Y6598840D01*
X12491315Y6594910D01*
X12490110Y6594419D01*
X12469891D01*
X12468686Y6594910D01*
X12462804Y6598840D01*
X12455000Y6600392D01*
X12365001D01*
X12357197Y6598840D01*
X12350581Y6594419D01*
X12346161Y6587804D01*
X12344609Y6580000D01*
Y6500000D01*
X12346161Y6492197D01*
X12350581Y6485581D01*
X12350581Y6474419D01*
X12346160Y6467804D01*
X12344608Y6460000D01*
Y6380000D01*
X12346160Y6372197D01*
X12350581Y6365581D01*
X12357197Y6361161D01*
X12365000Y6359609D01*
Y6340392D01*
X12357197Y6338840D01*
X12350581Y6334420D01*
X12346160Y6327804D01*
X12344608Y6320000D01*
Y6285348D01*
X12325796Y6267376D01*
X12324608Y6267403D01*
X12322206Y6267832D01*
X12312443Y6282443D01*
X12295879Y6299007D01*
X12296340Y6299696D01*
X12297892Y6307500D01*
Y6397500D01*
X12296340Y6405303D01*
X12291920Y6411919D01*
X12285304Y6416339D01*
X12277500Y6417892D01*
X12182500D01*
X12180784Y6417550D01*
X12164639Y6427007D01*
X12160783Y6431097D01*
Y6540606D01*
X12222285Y6602108D01*
X12277500D01*
X12285304Y6603660D01*
X12291920Y6608081D01*
X12296340Y6614696D01*
X12297892Y6622500D01*
Y6712500D01*
X12296340Y6720303D01*
X12291920Y6726919D01*
X12285304Y6731339D01*
X12277500Y6732892D01*
X12182500D01*
X12174697Y6731339D01*
X12173865Y6730784D01*
X12120001D01*
X12120000Y6730784D01*
X12104393Y6727679D01*
X12091162Y6718838D01*
X12091161Y6718838D01*
X12080607Y6708283D01*
X12045001D01*
X12045000Y6708284D01*
X12029897Y6705279D01*
X12026338Y6708839D01*
X12013107Y6717679D01*
X11997500Y6720784D01*
X11997498Y6720784D01*
X11980001D01*
X11980000Y6720784D01*
X11979998Y6720784D01*
X11761313D01*
X11650392Y6831704D01*
Y6865000D01*
X11648840Y6872804D01*
X11644419Y6879419D01*
X11638972Y6883059D01*
X11638114Y6885579D01*
X11637736Y6888325D01*
X11637493Y6904293D01*
X11639420Y6905581D01*
X11643840Y6912196D01*
X11644760Y6916820D01*
X11653569Y6921138D01*
X11665392Y6922784D01*
X11672944Y6912944D01*
X11689655Y6900120D01*
X11709116Y6892059D01*
X11730000Y6889310D01*
X11750884Y6892059D01*
X11770345Y6900120D01*
X11771983Y6901377D01*
X11776871Y6901267D01*
X11796456Y6894947D01*
X11801860Y6886860D01*
X11815918Y6877466D01*
X11832500Y6874168D01*
X11849083Y6877466D01*
X11863141Y6886860D01*
X11866860D01*
X11880918Y6877466D01*
X11897500Y6874168D01*
X11914083Y6877466D01*
X11928141Y6886860D01*
X11931860D01*
X11945918Y6877466D01*
X11962500Y6874168D01*
X11979083Y6877466D01*
X11993141Y6886860D01*
X11996860D01*
X12010918Y6877466D01*
X12027500Y6874168D01*
X12044083Y6877466D01*
X12058141Y6886860D01*
X12067534Y6900918D01*
X12070833Y6917500D01*
Y6919217D01*
X12114764D01*
X12116160Y6912196D01*
X12120581Y6905581D01*
X12127196Y6901160D01*
X12135000Y6899608D01*
X12225000D01*
X12232804Y6901160D01*
X12238685Y6905091D01*
X12239891Y6905581D01*
X12260109D01*
X12261315Y6905091D01*
X12267196Y6901160D01*
X12275000Y6899608D01*
X12365000D01*
X12372804Y6901160D01*
X12379419Y6905581D01*
X12383840Y6912196D01*
X12385392Y6920000D01*
Y7000000D01*
X12383840Y7007804D01*
X12379419Y7014419D01*
X12379013Y7018546D01*
X12394782Y7034314D01*
X12810001D01*
X12823656Y7037031D01*
X12835234Y7044766D01*
X12884314Y7093847D01*
X12904314Y7085563D01*
D02*
G37*
G36*
X14384314Y6955218D02*
Y6634782D01*
X14324767Y6575234D01*
X14317030Y6563656D01*
X14314314Y6550000D01*
Y6470993D01*
X14294315Y6464204D01*
X14289925Y6469925D01*
X14275302Y6481145D01*
X14258273Y6488198D01*
X14239999Y6490604D01*
X14185686D01*
Y6519607D01*
X14195000D01*
X14202805Y6521159D01*
X14209419Y6525580D01*
X14213840Y6532195D01*
X14215392Y6539999D01*
Y6619999D01*
X14213840Y6627803D01*
X14209419Y6634418D01*
X14202805Y6638839D01*
X14195000Y6640391D01*
X14105000D01*
X14097197Y6638839D01*
X14090581Y6634419D01*
X14069691Y6632403D01*
X14067433Y6633034D01*
X13885686Y6814781D01*
Y6960000D01*
X13884557Y6965676D01*
X13891583Y6987465D01*
X13905640Y6996859D01*
X13909360D01*
X13923418Y6987465D01*
X13939999Y6984167D01*
X13956583Y6987465D01*
X13970641Y6996859D01*
X13974361D01*
X13988417Y6987465D01*
X14005000Y6984167D01*
X14021584Y6987465D01*
X14035640Y6996859D01*
X14040262Y7003775D01*
X14063464Y7008858D01*
X14084608Y6987714D01*
Y6939999D01*
X14086160Y6932196D01*
X14090581Y6925580D01*
X14097195Y6921160D01*
X14105000Y6919607D01*
X14195000D01*
X14202803Y6921160D01*
X14209419Y6925580D01*
X14213840Y6932196D01*
X14215392Y6939999D01*
Y7019999D01*
X14213840Y7027803D01*
X14209419Y7034418D01*
X14202803Y7038839D01*
X14195000Y7040391D01*
X14147284D01*
X14083838Y7103838D01*
X14070607Y7112678D01*
X14055000Y7115783D01*
X14046391Y7132255D01*
X14045033Y7139082D01*
X14041537Y7144314D01*
X14052176Y7164314D01*
X14175218D01*
X14384314Y6955218D01*
D02*
G37*
G36*
X15886449Y7399022D02*
X15880228Y7395696D01*
X15842921Y7365079D01*
X15812305Y7327773D01*
X15789554Y7285211D01*
X15775545Y7239028D01*
X15770815Y7191000D01*
X15775545Y7142971D01*
X15786044Y7108361D01*
X15789999Y7090000D01*
X15789999Y7090000D01*
Y7044495D01*
X15785001Y7040392D01*
X15635001D01*
X15627197Y7038840D01*
X15620581Y7034419D01*
X15616161Y7027804D01*
X15614607Y7020000D01*
Y6820000D01*
X15616161Y6812196D01*
X15620581Y6805580D01*
X15627197Y6801160D01*
X15635001Y6799608D01*
X15730544D01*
X15790076Y6740075D01*
X15804698Y6728855D01*
X15821727Y6721802D01*
X15830000Y6720712D01*
Y6615392D01*
X15822197Y6613840D01*
X15815581Y6609419D01*
X15811160Y6602804D01*
X15809608Y6595000D01*
Y6505000D01*
X15811160Y6497197D01*
X15815581Y6490581D01*
X15822197Y6486161D01*
X15830000Y6484608D01*
X15884924D01*
X15894315Y6475219D01*
Y6380000D01*
Y6284781D01*
X15877719Y6268186D01*
X15865590D01*
X15859084Y6272534D01*
X15842500Y6275832D01*
X15747501D01*
X15730917Y6272534D01*
X15716859Y6263140D01*
X15707466Y6249082D01*
X15704167Y6232500D01*
X15707466Y6215917D01*
X15716859Y6201860D01*
Y6198140D01*
X15707466Y6184083D01*
X15704167Y6167500D01*
X15705006Y6163284D01*
X15690344Y6143283D01*
X15652499D01*
X15636893Y6140179D01*
X15623662Y6131338D01*
X15623660Y6131337D01*
X15622716Y6130391D01*
X15530000D01*
X15522195Y6128839D01*
X15515581Y6124419D01*
X15511160Y6117803D01*
X15509608Y6109999D01*
X15490392D01*
X15488840Y6117803D01*
X15484419Y6124419D01*
X15478671Y6128259D01*
X15477673Y6129158D01*
X15469888Y6148115D01*
X15469881Y6149655D01*
X15477940Y6169115D01*
X15480690Y6190000D01*
X15477940Y6210884D01*
X15469881Y6230345D01*
X15457056Y6247056D01*
X15440344Y6259879D01*
X15420885Y6267940D01*
X15400000Y6270690D01*
X15379115Y6267940D01*
X15359656Y6259879D01*
X15342943Y6247056D01*
X15330119Y6230345D01*
X15322060Y6210884D01*
X15319310Y6190000D01*
X15320638Y6179912D01*
X15308229Y6162423D01*
X15295831Y6167500D01*
X15292534Y6184083D01*
X15283141Y6198140D01*
Y6201860D01*
X15292534Y6215917D01*
X15295831Y6232500D01*
X15292534Y6249082D01*
X15283141Y6263140D01*
X15269083Y6272534D01*
X15252499Y6275832D01*
X15157500D01*
X15140916Y6272534D01*
X15134410Y6268186D01*
X15132281D01*
X15115233Y6285234D01*
X15103656Y6292969D01*
X15095390Y6294613D01*
Y6300000D01*
X15093839Y6307804D01*
X15089909Y6313685D01*
X15089420Y6314891D01*
X15089420Y6335109D01*
X15089909Y6336314D01*
X15093840Y6342196D01*
X15095392Y6350000D01*
Y6354374D01*
X15115392Y6356343D01*
X15117467Y6345917D01*
X15126859Y6331859D01*
X15140916Y6322466D01*
X15157500Y6319167D01*
X15252499D01*
X15265314Y6321716D01*
X15362498D01*
X15362500Y6321716D01*
X15374284Y6324060D01*
X15379115Y6322059D01*
X15400000Y6319309D01*
X15420885Y6322059D01*
X15440344Y6330120D01*
X15457056Y6342943D01*
X15469881Y6359655D01*
X15477940Y6379116D01*
X15480690Y6400000D01*
X15477940Y6420884D01*
X15470782Y6438163D01*
Y6484764D01*
X15477803Y6486160D01*
X15484419Y6490580D01*
X15488840Y6497196D01*
X15490392Y6504999D01*
Y6594999D01*
X15488840Y6602803D01*
X15484419Y6609419D01*
X15477803Y6613839D01*
X15470000Y6615391D01*
Y6634608D01*
X15477803Y6636160D01*
X15484419Y6640581D01*
X15488840Y6647196D01*
X15490392Y6655000D01*
Y6745000D01*
X15488840Y6752803D01*
X15484419Y6759419D01*
X15480978Y6761717D01*
Y6801942D01*
X15484801Y6802445D01*
X15507910Y6812018D01*
X15527756Y6827245D01*
X15542982Y6847090D01*
X15552554Y6870200D01*
X15555820Y6895000D01*
Y6945000D01*
X15552554Y6969800D01*
X15542982Y6992910D01*
X15527756Y7012755D01*
X15507910Y7027982D01*
X15484801Y7037555D01*
X15460001Y7040820D01*
X15435201Y7037555D01*
X15412090Y7027982D01*
X15392245Y7012755D01*
X15377019Y6992910D01*
X15370824Y6977956D01*
X15349176D01*
X15342982Y6992910D01*
X15327754Y7012755D01*
X15307910Y7027982D01*
X15284801Y7037555D01*
X15260001Y7040820D01*
X15235201Y7037555D01*
X15212090Y7027982D01*
X15192245Y7012755D01*
X15177019Y6992910D01*
X15167445Y6969800D01*
X15164180Y6945000D01*
Y6895000D01*
X15167445Y6870200D01*
X15177019Y6847090D01*
X15192245Y6827245D01*
X15212090Y6812018D01*
X15235201Y6802445D01*
X15244118Y6801271D01*
Y6764222D01*
X15242197Y6763839D01*
X15235580Y6759419D01*
X15231160Y6752803D01*
X15229608Y6745000D01*
Y6689530D01*
X15209608Y6688219D01*
X15207941Y6700884D01*
X15199879Y6720345D01*
X15187056Y6737057D01*
X15170345Y6749880D01*
X15150883Y6757941D01*
X15130000Y6760690D01*
X15109116Y6757941D01*
X15089655Y6749880D01*
X15072943Y6737057D01*
X15060120Y6720345D01*
X15052058Y6700884D01*
X15049310Y6680000D01*
X15052058Y6659116D01*
X15060120Y6639655D01*
X15072943Y6622944D01*
X15089655Y6610120D01*
X15100275Y6605721D01*
X15101160Y6602803D01*
X15099608Y6594999D01*
Y6504999D01*
X15101160Y6497196D01*
X15105582Y6490580D01*
X15112196Y6486160D01*
X15120000Y6484608D01*
X15132039D01*
X15136539Y6464608D01*
X15126859Y6458141D01*
X15117467Y6444083D01*
X15114902Y6431186D01*
X15095392Y6430000D01*
X15093840Y6437803D01*
X15089420Y6444419D01*
X15082803Y6448840D01*
X15075000Y6450392D01*
X14985001D01*
X14977197Y6448840D01*
X14970581Y6444419D01*
X14966161Y6437803D01*
X14965691Y6435439D01*
X14945689Y6437409D01*
Y6460000D01*
X14942941Y6480884D01*
X14940392Y6487038D01*
Y6590000D01*
X14938840Y6597803D01*
X14934419Y6604419D01*
X14927805Y6608839D01*
X14920000Y6610392D01*
X14810001D01*
X14802196Y6608839D01*
X14795581Y6604419D01*
X14791161Y6597803D01*
X14789607Y6590000D01*
Y6487038D01*
X14787059Y6480884D01*
X14784309Y6460000D01*
Y6140000D01*
Y6032500D01*
X14787059Y6011616D01*
X14795120Y5992155D01*
X14807944Y5975443D01*
X14856693Y5926693D01*
X14858817Y5925065D01*
X14860443Y5922943D01*
X14962411Y5820975D01*
X14963660Y5814696D01*
X14966324Y5810709D01*
Y5722500D01*
X14970981Y5699089D01*
X14984242Y5679243D01*
X15067067Y5596418D01*
X15064655Y5589209D01*
X15056711Y5578490D01*
X15039999Y5580690D01*
X15019116Y5577941D01*
X14999655Y5569880D01*
X14982944Y5557056D01*
X14970120Y5540345D01*
X14968190Y5535686D01*
X14664783D01*
X14385686Y5814782D01*
Y6535219D01*
X14445235Y6594767D01*
X14452969Y6606344D01*
X14455685Y6620000D01*
Y6970000D01*
X14452969Y6983656D01*
X14445235Y6995233D01*
X14215233Y7225234D01*
X14203656Y7232969D01*
X14189999Y7235686D01*
X13970000D01*
X13956345Y7232969D01*
X13944766Y7225234D01*
X13930685Y7211153D01*
X13910686Y7219437D01*
Y7225000D01*
X13907970Y7238656D01*
X13900233Y7250234D01*
X13749924Y7400544D01*
X13757578Y7419022D01*
X14567439D01*
X14572449Y7399022D01*
X14566228Y7395696D01*
X14528922Y7365079D01*
X14498305Y7327773D01*
X14475554Y7285211D01*
X14461545Y7239028D01*
X14456815Y7191000D01*
X14461545Y7142971D01*
X14475554Y7096789D01*
X14498305Y7054226D01*
X14528922Y7016920D01*
X14566228Y6986304D01*
X14608789Y6963554D01*
X14654971Y6949545D01*
X14703000Y6944814D01*
X14751028Y6949545D01*
X14797211Y6963554D01*
X14839774Y6986304D01*
X14877078Y7016920D01*
X14907697Y7054226D01*
X14930446Y7096789D01*
X14944455Y7142971D01*
X14949185Y7191000D01*
X14944455Y7239028D01*
X14930446Y7285211D01*
X14907697Y7327773D01*
X14877078Y7365079D01*
X14839774Y7395696D01*
X14833551Y7399022D01*
X14838560Y7419022D01*
X15881439D01*
X15886449Y7399022D01*
D02*
G37*
G36*
X13838052Y5910403D02*
X13842749Y5902549D01*
X13842059Y5900884D01*
X13839310Y5880000D01*
X13842059Y5859116D01*
X13850121Y5839655D01*
X13857639Y5829857D01*
X13852652Y5817346D01*
X13847729Y5810391D01*
X13829115Y5807941D01*
X13809656Y5799880D01*
X13798311Y5791175D01*
X13761690D01*
X13750345Y5799880D01*
X13730884Y5807941D01*
X13710001Y5810690D01*
X13689116Y5807941D01*
X13669655Y5799880D01*
X13652943Y5787056D01*
X13640120Y5770345D01*
X13632059Y5750884D01*
X13629535Y5731713D01*
X13622879Y5726328D01*
X13610547Y5719288D01*
X13605000Y5720391D01*
X13514999D01*
X13507196Y5718839D01*
X13501314Y5714909D01*
X13500108Y5714419D01*
X13479890D01*
X13478685Y5714909D01*
X13472803Y5718839D01*
X13464999Y5720391D01*
X13375000D01*
X13367197Y5718839D01*
X13360580Y5714419D01*
X13356160Y5707803D01*
X13354608Y5700000D01*
Y5693136D01*
X13325391D01*
Y5700000D01*
X13323839Y5707803D01*
X13319418Y5714419D01*
X13312804Y5718839D01*
X13305000Y5720391D01*
X13214999D01*
X13207196Y5718839D01*
X13200580Y5714419D01*
X13196159Y5707803D01*
X13194608Y5700000D01*
Y5620000D01*
X13196159Y5612196D01*
X13200580Y5605580D01*
X13204080Y5603242D01*
X13206880Y5589431D01*
X13206648Y5580877D01*
X13197473Y5574419D01*
X13179890D01*
X13178685Y5574909D01*
X13172803Y5578839D01*
X13164999Y5580392D01*
X13155685D01*
Y5660001D01*
X13152968Y5673657D01*
X13145233Y5685235D01*
X13088234Y5742234D01*
X13076656Y5749969D01*
X13063000Y5752686D01*
X13000392D01*
Y5757000D01*
X12998840Y5764804D01*
X12994418Y5771419D01*
X12954420Y5811418D01*
X12954419Y5811419D01*
X12947804Y5815840D01*
X12939999Y5817392D01*
X12860001D01*
X12852197Y5815840D01*
X12845581Y5811419D01*
X12813136Y5778975D01*
X12793136Y5787259D01*
Y5886274D01*
X12823726Y5916863D01*
X13820000D01*
X13827663Y5918387D01*
X13838052Y5910403D01*
D02*
G37*
G36*
X11348937Y7414059D02*
X11359608Y7399022D01*
Y7324494D01*
X11207557Y7172443D01*
X11197611Y7157558D01*
X11194118Y7140000D01*
Y7087892D01*
X11192500D01*
X11184696Y7086340D01*
X11178081Y7081920D01*
X11173660Y7075304D01*
X11172108Y7067500D01*
Y6977500D01*
X11173660Y6969697D01*
X11178081Y6963081D01*
X11178824Y6962584D01*
Y6890000D01*
X11180701Y6880566D01*
X11179310Y6870000D01*
X11182059Y6849116D01*
X11189396Y6831403D01*
Y6778597D01*
X11182059Y6760884D01*
X11179310Y6740000D01*
X11182059Y6719116D01*
X11189396Y6701403D01*
Y6686968D01*
X11185581Y6684419D01*
X11181161Y6677804D01*
X11179609Y6670000D01*
Y6560000D01*
X11181161Y6552196D01*
X11185581Y6545581D01*
X11192197Y6541160D01*
X11200000Y6539608D01*
X11529608D01*
X11530000Y6540000D01*
X11530592Y6540485D01*
X11535000Y6539608D01*
X11653030D01*
X11655000Y6539216D01*
X11655001Y6539217D01*
X11709999D01*
X11710000Y6539216D01*
X11725607Y6542321D01*
X11731256Y6546096D01*
X11749903Y6534501D01*
X11749310Y6530000D01*
X11752060Y6509116D01*
X11760120Y6489655D01*
X11772944Y6472944D01*
X11789655Y6460120D01*
X11791717Y6459266D01*
Y6435315D01*
X11789168Y6422500D01*
Y6327500D01*
X11792466Y6310918D01*
X11801860Y6296860D01*
X11815918Y6287466D01*
X11832500Y6284168D01*
X11849083Y6287466D01*
X11863141Y6296860D01*
X11872534Y6310918D01*
X11875833Y6327500D01*
Y6422500D01*
X11881988Y6430000D01*
X11913013D01*
X11919168Y6422500D01*
Y6327500D01*
X11921717Y6314686D01*
Y6267501D01*
X11921717Y6267500D01*
X11921717Y6267499D01*
Y6032500D01*
X11924821Y6016893D01*
X11933662Y6003662D01*
X11944609Y5996348D01*
Y5840000D01*
X11788310D01*
X11780302Y5846145D01*
X11763273Y5853198D01*
X11745000Y5855604D01*
X11562646D01*
X11557803Y5858840D01*
X11550000Y5860392D01*
X11290000D01*
X11282196Y5858840D01*
X11275580Y5854419D01*
X11271160Y5847804D01*
X11269608Y5840000D01*
Y5730000D01*
X11271160Y5722197D01*
X11275580Y5715581D01*
X11282196Y5711161D01*
X11290000Y5709608D01*
X11299448D01*
X11301802Y5691726D01*
X11308855Y5674698D01*
X11320076Y5660076D01*
X11390419Y5589733D01*
X11391802Y5579226D01*
X11392108Y5578487D01*
Y5552500D01*
X11393660Y5544696D01*
X11398081Y5538081D01*
X11404696Y5533660D01*
X11412500Y5532108D01*
X11434951D01*
X11441726Y5529302D01*
X11460000Y5526896D01*
X11503255D01*
X11925278Y5104873D01*
X11912181Y5080371D01*
X11902460Y5048325D01*
X11899178Y5015000D01*
Y4793016D01*
X11805581Y4699420D01*
X11805581Y4699419D01*
X11801160Y4692804D01*
X11799608Y4685000D01*
Y4435000D01*
X11801160Y4427196D01*
X11805581Y4420581D01*
X11915184Y4310978D01*
X11906899Y4290978D01*
X11020978D01*
X11020977Y7419021D01*
X11343092D01*
X11348937Y7414059D01*
D02*
G37*
G36*
X13579314Y7180219D02*
Y7145589D01*
X13574966Y7139082D01*
X13571667Y7122499D01*
Y7027499D01*
X13574966Y7010917D01*
X13584360Y6996859D01*
X13598418Y6987465D01*
X13614999Y6984167D01*
X13631583Y6987465D01*
X13640796Y6993622D01*
X13660492Y6985826D01*
X13664555Y6972913D01*
X13665036Y6966751D01*
X13660120Y6960345D01*
X13652058Y6940884D01*
X13649310Y6920000D01*
X13652058Y6899116D01*
X13660120Y6879655D01*
X13672943Y6862943D01*
X13689655Y6850120D01*
X13709116Y6842059D01*
X13730000Y6839310D01*
X13750883Y6842059D01*
X13770345Y6850120D01*
X13787056Y6862943D01*
X13794315Y6872402D01*
X13814314Y6865613D01*
Y6800000D01*
X13817030Y6786344D01*
X13824767Y6774766D01*
X14004826Y6594706D01*
X13997008Y6574242D01*
X13988417Y6572533D01*
X13974361Y6563140D01*
X13970641D01*
X13956583Y6572533D01*
X13939999Y6575832D01*
X13923418Y6572533D01*
X13909360Y6563140D01*
X13905640D01*
X13891583Y6572533D01*
X13875000Y6575832D01*
X13858417Y6572533D01*
X13844360Y6563140D01*
X13840640D01*
X13826582Y6572533D01*
X13810001Y6575832D01*
X13800687Y6573979D01*
X13780685Y6586249D01*
Y6645000D01*
X13777969Y6658656D01*
X13770235Y6670234D01*
X13700233Y6740233D01*
X13688657Y6747968D01*
X13675002Y6750685D01*
X13530392D01*
Y6754999D01*
X13528839Y6762803D01*
X13524419Y6769418D01*
X13517802Y6773839D01*
X13510001Y6775391D01*
X13420000D01*
X13412196Y6773839D01*
X13405582Y6769418D01*
X13401160Y6762803D01*
X13400778Y6760881D01*
X13370392D01*
Y6799999D01*
X13368839Y6807803D01*
X13364420Y6814418D01*
X13357803Y6818839D01*
X13350000Y6820391D01*
X13289999D01*
X13282196Y6818839D01*
X13275581Y6814418D01*
X13271159Y6807803D01*
X13269608Y6799999D01*
Y6679999D01*
X13271159Y6672196D01*
X13275581Y6665580D01*
X13282196Y6661160D01*
X13289999Y6659607D01*
X13350000D01*
X13357803Y6661160D01*
X13364420Y6665580D01*
X13366783Y6669117D01*
X13400778D01*
X13401160Y6667195D01*
X13405582Y6660580D01*
X13412196Y6656159D01*
X13420000Y6654607D01*
X13510001D01*
X13517802Y6656159D01*
X13524419Y6660580D01*
X13528839Y6667195D01*
X13530392Y6674999D01*
Y6679313D01*
X13660219D01*
X13709314Y6630218D01*
Y6555589D01*
X13704967Y6549082D01*
X13701668Y6532499D01*
Y6437499D01*
X13704216Y6424685D01*
Y6387547D01*
X13695134Y6381995D01*
X13684216Y6379236D01*
X13670345Y6389880D01*
X13656078Y6395789D01*
X13652502Y6414004D01*
X13652873Y6417682D01*
X13655034Y6420917D01*
X13658331Y6437499D01*
Y6532499D01*
X13655034Y6549082D01*
X13645641Y6563140D01*
X13631583Y6572533D01*
X13614999Y6575832D01*
X13598418Y6572533D01*
X13584360Y6563140D01*
X13574966Y6549082D01*
X13571667Y6532499D01*
Y6437499D01*
X13574966Y6420917D01*
X13579314Y6414409D01*
Y6381945D01*
X13572943Y6377057D01*
X13560120Y6360345D01*
X13552058Y6340884D01*
X13549310Y6320000D01*
X13552058Y6299116D01*
X13560120Y6279655D01*
X13572943Y6262944D01*
X13579317Y6258054D01*
X13580000Y6252418D01*
X13575629Y6235673D01*
X13564697Y6231145D01*
X13550075Y6219925D01*
X13546973Y6215882D01*
X13494221D01*
X13493839Y6217804D01*
X13489420Y6224419D01*
X13482803Y6228840D01*
X13474998Y6230392D01*
X13385001D01*
X13377196Y6228840D01*
X13371313Y6224910D01*
X13370110Y6224419D01*
X13349890D01*
X13348685Y6224910D01*
X13342802Y6228840D01*
X13334999Y6230392D01*
X13245000D01*
X13237196Y6228840D01*
X13230580Y6224419D01*
X13226160Y6217804D01*
X13224608Y6210000D01*
Y6130000D01*
X13225974Y6123137D01*
X13226047Y6121987D01*
X13215945Y6103137D01*
X12812526D01*
X12804872Y6121614D01*
X13051628Y6368371D01*
X13051630Y6368371D01*
X13058260Y6378295D01*
X13060588Y6390000D01*
X13060588Y6390001D01*
Y6651327D01*
X13080588Y6659566D01*
X13084119Y6656008D01*
Y6639999D01*
X13087611Y6622441D01*
X13097556Y6607556D01*
X13129608Y6575505D01*
Y6534999D01*
X13131160Y6527195D01*
X13135580Y6520580D01*
X13142197Y6516159D01*
X13150000Y6514607D01*
X13230000D01*
X13237804Y6516159D01*
X13244418Y6520580D01*
X13248839Y6527195D01*
X13250392Y6534999D01*
Y6624999D01*
X13248839Y6632803D01*
X13244418Y6639418D01*
X13237804Y6643839D01*
X13230000Y6645391D01*
X13189494D01*
X13175880Y6659004D01*
Y6667768D01*
X13178839Y6672196D01*
X13180391Y6679999D01*
Y6799999D01*
X13178839Y6807803D01*
X13174419Y6814418D01*
X13167802Y6818839D01*
X13160001Y6820391D01*
X13123563D01*
X13115277Y6840391D01*
X13152443Y6877557D01*
X13160571Y6889721D01*
X13167802Y6891160D01*
X13174419Y6895580D01*
X13178839Y6902196D01*
X13180391Y6909999D01*
Y7029999D01*
X13178839Y7037803D01*
X13175880Y7042230D01*
Y7130995D01*
X13199005Y7154119D01*
X13260995D01*
X13274118Y7140995D01*
Y7042230D01*
X13271159Y7037803D01*
X13269608Y7029999D01*
Y6909999D01*
X13271159Y6902196D01*
X13275581Y6895580D01*
X13282196Y6891160D01*
X13289999Y6889608D01*
X13350000D01*
X13357803Y6891160D01*
X13364420Y6895580D01*
X13368839Y6902196D01*
X13370392Y6909999D01*
Y6924118D01*
X13449998D01*
X13452463Y6924608D01*
X13509999D01*
X13517802Y6926160D01*
X13524419Y6930580D01*
X13528839Y6937196D01*
X13530391Y6945000D01*
Y7024999D01*
X13528839Y7032803D01*
X13524419Y7039419D01*
X13517802Y7043839D01*
X13509999Y7045391D01*
X13505496D01*
X13497443Y7057444D01*
X13472443Y7082443D01*
X13457558Y7092389D01*
X13439999Y7095882D01*
X13396992D01*
X13380588Y7105000D01*
Y7169999D01*
X13380588Y7170000D01*
X13378259Y7181705D01*
X13371629Y7191629D01*
X13371628Y7191630D01*
X13337421Y7225836D01*
X13345074Y7244314D01*
X13515219D01*
X13579314Y7180219D01*
D02*
G37*
D10*
X15710001Y5120000D02*
D03*
D11*
X15482500Y5400000D02*
D03*
X15547501D02*
D03*
X15612500D02*
D03*
X15677499D02*
D03*
X15742500D02*
D03*
X15807500D02*
D03*
X15872501D02*
D03*
X15937500D02*
D03*
Y4840000D02*
D03*
X15872501D02*
D03*
X15807500D02*
D03*
X15742500D02*
D03*
X15677499D02*
D03*
X15612500D02*
D03*
X15547501D02*
D03*
X15482500D02*
D03*
D12*
X14182500Y5120000D02*
D03*
X15177499D02*
D03*
D13*
X13614999Y6484999D02*
D03*
X13680000D02*
D03*
X13745000D02*
D03*
X13810001D02*
D03*
X13875000D02*
D03*
X13939999D02*
D03*
X14005000D02*
D03*
X13614999Y7074999D02*
D03*
X13680000D02*
D03*
X13745000D02*
D03*
X13810001D02*
D03*
X13875000D02*
D03*
X13939999D02*
D03*
X14005000D02*
D03*
X12027500Y6965000D02*
D03*
X11962500D02*
D03*
X11897500D02*
D03*
X11832500D02*
D03*
X12027500Y6375000D02*
D03*
X11962500D02*
D03*
X11897500D02*
D03*
X11832500D02*
D03*
D14*
X15795000Y5972500D02*
D03*
Y6037500D02*
D03*
Y6102500D02*
D03*
Y6167500D02*
D03*
Y6232500D02*
D03*
Y6297500D02*
D03*
Y6362500D02*
D03*
Y6427500D02*
D03*
X15205000Y5972500D02*
D03*
Y6037500D02*
D03*
Y6102500D02*
D03*
Y6167500D02*
D03*
Y6232500D02*
D03*
Y6297500D02*
D03*
Y6362500D02*
D03*
Y6427500D02*
D03*
D15*
X13320000Y6969999D02*
D03*
X13225000D02*
D03*
X13130000D02*
D03*
Y6739999D02*
D03*
X13320000D02*
D03*
D16*
X13609999Y5517000D02*
D03*
X13560001D02*
D03*
X13509999D02*
D03*
X13459999D02*
D03*
X13409999D02*
D03*
X13609999Y5323000D02*
D03*
X13560001D02*
D03*
X13509999D02*
D03*
X13459999D02*
D03*
X13409999D02*
D03*
D17*
X13509999Y5420000D02*
D03*
D18*
X13650000Y6170000D02*
D03*
X14110001Y6010000D02*
D03*
Y6220000D02*
D03*
X14189999Y6420000D02*
D03*
D19*
X14150000Y6839999D02*
D03*
Y6979999D02*
D03*
X16039999Y5749999D02*
D03*
Y5609999D02*
D03*
X15930000Y4540000D02*
D03*
Y4400000D02*
D03*
X15889999Y5610000D02*
D03*
Y5750000D02*
D03*
X16030000Y6350000D02*
D03*
Y6210000D02*
D03*
X15030000Y6120000D02*
D03*
Y6260000D02*
D03*
X12850000Y6820000D02*
D03*
Y6960000D02*
D03*
X12320000Y6820000D02*
D03*
Y6960000D02*
D03*
X13560001Y5800000D02*
D03*
Y5660000D02*
D03*
X13120000Y5380000D02*
D03*
Y5520000D02*
D03*
X12410001Y6680000D02*
D03*
Y6540000D02*
D03*
X12850000D02*
D03*
Y6680000D02*
D03*
X13260001Y5660000D02*
D03*
Y5520000D02*
D03*
X11420001Y7100000D02*
D03*
Y6960000D02*
D03*
X12410000Y6280000D02*
D03*
Y6420000D02*
D03*
X12700000Y6540000D02*
D03*
Y6680000D02*
D03*
X11580000Y7100000D02*
D03*
Y6960000D02*
D03*
X12970000Y5250000D02*
D03*
Y5110000D02*
D03*
X14150000Y6719999D02*
D03*
Y6579999D02*
D03*
X13430000Y6170000D02*
D03*
Y6310000D02*
D03*
X13289999Y6170000D02*
D03*
Y6310000D02*
D03*
X15030000Y6530000D02*
D03*
Y6390000D02*
D03*
X15739999Y5560000D02*
D03*
Y5700000D02*
D03*
X13464999Y6845000D02*
D03*
Y6984999D02*
D03*
X13464999Y6714999D02*
D03*
Y6574999D02*
D03*
X12180000Y6820000D02*
D03*
Y6960000D02*
D03*
X13420000Y5800000D02*
D03*
Y5660000D02*
D03*
X12550001Y6680000D02*
D03*
Y6540000D02*
D03*
X11730000Y7240000D02*
D03*
Y7100000D02*
D03*
X13759999Y5220000D02*
D03*
Y5360000D02*
D03*
X13760001Y5619999D02*
D03*
Y5479999D02*
D03*
D20*
X16189999Y5190000D02*
D03*
Y5330000D02*
D03*
Y5610000D02*
D03*
Y5750000D02*
D03*
D21*
X16060001Y4679999D02*
D03*
X15920000D02*
D03*
X15300000Y6549999D02*
D03*
X15160001D02*
D03*
X15430000Y6700000D02*
D03*
X15289999D02*
D03*
X13760001Y5080000D02*
D03*
X13620000D02*
D03*
X11560000Y7360000D02*
D03*
X11420000D02*
D03*
X13239999Y5070000D02*
D03*
X13380000D02*
D03*
X13510001Y4930000D02*
D03*
X13650000D02*
D03*
X15570000Y6549999D02*
D03*
X15430000D02*
D03*
X15730000Y6550000D02*
D03*
X15870000D02*
D03*
X13330000Y6579999D02*
D03*
X13189999D02*
D03*
X15780000Y4679999D02*
D03*
X15639999D02*
D03*
D22*
X15589999Y6039999D02*
D03*
X15410001D02*
D03*
D23*
X11420000Y6800000D02*
D03*
X11580000D02*
D03*
D24*
X15027499Y5870000D02*
D03*
X14712500D02*
D03*
D25*
X11240000Y7022500D02*
D03*
Y7337500D02*
D03*
X11460000Y5597500D02*
D03*
Y5282500D02*
D03*
X12230000Y6667500D02*
D03*
Y6352500D02*
D03*
D26*
X14595000Y6460000D02*
D03*
X14864999D02*
D03*
X14595000Y6140000D02*
D03*
X14864999D02*
D03*
D27*
X15550000Y5844999D02*
D03*
Y5575000D02*
D03*
X11620000Y6345000D02*
D03*
Y6615000D02*
D03*
D28*
X15495000Y4490000D02*
D03*
X15764999D02*
D03*
D29*
X11420000Y6055000D02*
D03*
Y5785000D02*
D03*
X11330000Y6345000D02*
D03*
Y6615000D02*
D03*
D30*
X12140000Y5085000D02*
D03*
Y6035000D02*
D03*
D31*
X14320000Y6780000D02*
D03*
D32*
X15650000Y6297500D02*
X15795000D01*
X15576250Y6363750D02*
X15650000D01*
X15510001Y6297500D02*
X15650000D01*
X15510001D02*
X15576250Y6363750D01*
X15205000Y6297500D02*
X15510001D01*
X11210000Y4620000D02*
Y6060000D01*
X13939999Y6070000D02*
X14000000Y6010000D01*
X14110001D01*
X13560001Y5140000D02*
X13620000Y5080000D01*
X13560001Y5140000D02*
Y5323000D01*
X13739999Y5240000D02*
X13759999Y5220000D01*
X13720000Y5260000D02*
X13739999Y5240000D01*
X13673000Y5260000D02*
X13720000D01*
X13630000Y5302999D02*
X13673000Y5260000D01*
X13720000Y5580000D02*
X13739999Y5600000D01*
X13689999Y5580000D02*
X13720000D01*
X13626999Y5517000D02*
X13689999Y5580000D01*
X13609999Y5517000D02*
X13626999D01*
X13609999Y5530000D02*
Y5560000D01*
X13739999Y5600000D02*
X13760001Y5619999D01*
X13680000Y5600000D02*
X13739999D01*
X13609999Y5530000D02*
X13680000Y5600000D01*
X13609999Y5517000D02*
Y5530000D01*
Y5560000D02*
X13670000Y5619999D01*
X13630000Y5250000D02*
Y5270000D01*
Y5302999D01*
Y5270000D02*
X13660001Y5240000D01*
X13739999D01*
X13609999Y5323000D02*
X13630000Y5302999D01*
Y5250000D02*
X13660001Y5220000D01*
X13759999D01*
X13739999Y5200000D02*
X13759999Y5220000D01*
X13650000Y5200000D02*
X13739999D01*
X13609999Y5240000D02*
X13650000Y5200000D01*
X13609999Y5240000D02*
Y5323000D01*
X13560001Y5517000D02*
Y5659999D01*
X13459999Y5517000D02*
Y5620000D01*
X15795000Y6297500D02*
Y6362500D01*
Y6427500D01*
X13263000Y5517000D02*
X13409999D01*
X13260001Y5520000D02*
X13263000Y5517000D01*
X13259999Y5520000D02*
X13260001Y5520000D01*
Y5660000D02*
X13420000D01*
X13459999Y5620000D01*
X13560001Y5659999D02*
X13560001Y5660000D01*
X13509999Y5420000D02*
Y5517000D01*
X13420000Y5800000D02*
X13560001D01*
X15652499Y6427500D02*
X15795000D01*
X15650000Y6430000D02*
X15652499Y6427500D01*
X15650000Y6363750D02*
Y6430000D01*
Y6297500D02*
Y6300000D01*
Y6363750D01*
X13289999Y6310000D02*
X13430000D01*
X13330000Y6579999D02*
X13460001D01*
X13680000Y6484999D02*
Y6590000D01*
X13660001Y6610000D02*
X13680000Y6590000D01*
X13500000Y6610000D02*
X13660001D01*
X13464999Y6574999D02*
X13500000Y6610000D01*
X14150000Y6720000D02*
X14150000Y6719999D01*
X14030000Y6780000D02*
X14150000D01*
Y6720000D02*
Y6780000D01*
Y6839999D01*
X13970000Y6840000D02*
X14030000Y6780000D01*
X13970000Y6840000D02*
Y6910000D01*
X14150000Y6780000D02*
X14320000D01*
X13509999Y4930001D02*
Y5323000D01*
Y4930001D02*
X13510001Y4930000D01*
X12900000D02*
X13510001D01*
X12900000Y4930000D02*
X12900000Y4930000D01*
X13380000Y5000000D02*
Y5070000D01*
X13360001Y4980000D02*
X13380000Y5000000D01*
X12810001Y4980000D02*
X13360001D01*
X13459999Y5089999D02*
Y5323000D01*
X13439999Y5070000D02*
X13459999Y5089999D01*
X13439999Y5070000D02*
X13439999Y5070000D01*
X13380000Y5070000D02*
X13439999D01*
X13367000Y5280000D02*
X13409999Y5323000D01*
X13000000Y5280000D02*
X13367000D01*
X12970000Y5250000D02*
X13000000Y5280000D01*
X12900000Y5463000D02*
X12983000Y5380000D01*
X13120000D01*
X12850000Y5250000D02*
X12970000D01*
X12760000Y5340000D02*
X12850000Y5250000D01*
X12700000Y5090000D02*
X12810001Y4980000D01*
X12780000Y4930000D02*
X12900000D01*
X12640000Y5070000D02*
X12780000Y4930000D01*
X12640000Y5070000D02*
Y5940000D01*
X12770000Y6070000D01*
X13760001D01*
X13810001Y6120000D01*
Y6484999D01*
X12700000Y5090000D02*
Y5920000D01*
X12790000Y6010000D01*
X13789999D01*
X12760000Y5340000D02*
Y5900000D01*
X12810001Y5950000D01*
X13820000D01*
X13810001Y6484999D02*
X13810001Y6484999D01*
X13875000Y6095000D02*
Y6484999D01*
X13789999Y6010000D02*
X13875000Y6095000D01*
X13820000Y5950000D02*
X13939999Y6070000D01*
X13280000Y5800000D02*
X13420000D01*
X13280000Y5800000D02*
X13280000Y5800000D01*
X13160001Y5800000D02*
X13280000D01*
X13130000Y5830000D02*
X13160001Y5800000D01*
X13939999Y6070000D02*
Y6484999D01*
X13460001Y6579999D02*
X13464999Y6574999D01*
X13470000Y6569999D01*
X13464999Y6475000D02*
Y6574999D01*
Y6475000D02*
X13489999Y6450000D01*
X13350000D02*
X13489999D01*
X13430000Y6310000D02*
X13489999Y6370000D01*
Y6450000D01*
X11100000Y7340000D02*
X11102500Y7337500D01*
X11100000Y7200000D02*
Y7340000D01*
Y7060000D02*
Y7200000D01*
X11102500Y7337500D02*
X11240000D01*
X11420000Y6055000D02*
Y6160000D01*
X11470000Y6210000D01*
X11215000Y6055000D02*
X11420000D01*
X11210000Y6060000D02*
X11215000Y6055000D01*
X11420000D02*
X11625000D01*
X11630000Y6060000D01*
X11780000D01*
X11100000Y6400000D02*
Y7060000D01*
Y6400000D02*
X11155000Y6345000D01*
X11330000D01*
X11210000Y4620000D02*
X11270000Y4560000D01*
X13160001Y6310000D02*
X13289999D01*
X13160001D02*
Y6370000D01*
X13220000Y6430000D01*
X13670000Y5619999D02*
X13699998D01*
X13760001D01*
D33*
X15742500Y4840000D02*
Y5087500D01*
X15677499Y4840000D02*
Y5087500D01*
X12550001Y6680000D02*
Y6880000D01*
X15612500Y5537500D02*
Y5597500D01*
X15580000Y5630000D02*
X15612500Y5597500D01*
X15397501Y4900000D02*
X15539999D01*
X15339999Y4790000D02*
X15530000D01*
X11460000Y4750000D02*
Y5282500D01*
X13920000Y5880000D02*
X14089999D01*
X14700000Y5270000D01*
Y4910000D02*
Y5270000D01*
Y4910000D02*
X15000000Y4610000D01*
X14700000Y5360000D02*
X14870000D01*
X14289999Y5770000D02*
X14700000Y5360000D01*
X14289999Y5770000D02*
Y6180000D01*
X14250000Y6220000D02*
X14289999Y6180000D01*
X14110001Y6220000D02*
X14250000D01*
X14060001D02*
X14110001D01*
X14005000Y6275000D02*
X14060001Y6220000D01*
X14005000Y6275000D02*
Y6484999D01*
X14150000Y6460000D02*
X14189999Y6420000D01*
X14150000Y6460000D02*
Y6579999D01*
X14420000Y6620000D02*
Y6970000D01*
X14350000Y6550000D02*
X14420000Y6620000D01*
X14350000Y5800000D02*
Y6550000D01*
Y5800000D02*
X14650000Y5500000D01*
X15039999D01*
X13120000Y6979999D02*
X13130000Y6969999D01*
X13225000Y7105000D02*
X13230000Y7110000D01*
X13225000Y6969999D02*
Y7105000D01*
X13585001Y6845000D02*
X13600000Y6830000D01*
X13464999Y6845000D02*
X13585001D01*
X13270000Y5380000D02*
X13270000Y5380000D01*
X13120000Y5380000D02*
X13270000D01*
X15930000Y6320000D02*
Y6380000D01*
X15960001Y6350000D01*
X15930000Y6380000D02*
Y6490000D01*
X15870000Y6550000D02*
X15930000Y6490000D01*
X16030000Y6350000D02*
X16030000Y6350000D01*
X15960001Y6350000D02*
X16030000D01*
X15930000Y6320000D02*
X15960001Y6350000D01*
X15930000Y6270000D02*
Y6320000D01*
X15892500Y6232500D02*
X15930000Y6270000D01*
X15795000Y6232500D02*
X15892500D01*
X15987502Y6167500D02*
X16030000Y6210000D01*
X15795000Y6167500D02*
X15987502D01*
X15030000Y6120000D02*
X15050000D01*
X15097501Y6167500D01*
X15205000D01*
X15030000Y6260000D02*
X15089999D01*
X15117500Y6232500D01*
X15205000D01*
X15547501Y5400000D02*
Y5572499D01*
X16180000Y4630000D02*
Y4770000D01*
X15410001Y4840000D02*
X15482500D01*
X15370001D02*
X15410001D01*
X15482500D02*
X15547501D01*
X15177499Y5072500D02*
X15410001Y4840000D01*
X16180000Y4770000D02*
Y4910000D01*
Y5050000D01*
X16180000Y5050000D02*
X16180000Y5050000D01*
X16039999Y5050000D02*
X16180000D01*
X16039999Y5190000D02*
X16189999D01*
X16189999Y5190000D01*
X15989999Y5400000D02*
X16030000Y5360000D01*
X16060001D01*
X16160001D01*
X16189999Y5330000D01*
X16039999Y5190000D02*
X16039999Y5190000D01*
Y5050000D02*
Y5190000D01*
X16150000Y5510000D02*
X16170000Y5490000D01*
X15900000Y5510000D02*
X16150000D01*
X15872501Y5482500D02*
X15900000Y5510000D01*
X15872501Y5400000D02*
Y5482500D01*
X15937500Y5400000D02*
X15989999D01*
X15547501D02*
X15612500D01*
X15677499D01*
X15547501Y5572499D02*
X15550000Y5575000D01*
X15742500Y5400000D02*
Y5557500D01*
X15739999Y5560000D02*
X15742500Y5557500D01*
X15807500Y5217500D02*
Y5400000D01*
X15370000Y4839999D02*
X15370001Y4840000D01*
X15177499Y5032500D02*
X15370000Y4839999D01*
X15612500Y4840000D02*
Y5022499D01*
Y4707499D02*
Y4840000D01*
Y4707499D02*
X15639999Y4679999D01*
X15677499Y4717499D02*
Y4840000D01*
X15639999Y4679999D02*
X15677499Y4717499D01*
X15807500Y4707499D02*
Y4840000D01*
X15780000Y4679999D02*
X15807500Y4707499D01*
X15872501Y4727500D02*
Y4840000D01*
Y4727500D02*
X15920000Y4679999D01*
Y4550000D02*
X15930000Y4540000D01*
X16060001Y4679999D02*
Y4770000D01*
X15989999Y4840000D02*
X16060001Y4770000D01*
X15937500Y4840000D02*
X15989999D01*
X15510001Y4679999D02*
X15639999D01*
X15510001Y4680000D02*
X15510001Y4679999D01*
X15370000Y4680000D02*
X15510001D01*
X15495000Y4490000D02*
Y4664999D01*
X15510001Y4679999D01*
X15410001Y4490000D02*
X15495000D01*
X15360001Y4540000D02*
X15410001Y4490000D01*
X16039999Y4910000D02*
Y5050000D01*
X13225000Y6845000D02*
X13464999D01*
X13225000Y6844999D02*
X13225000Y6845000D01*
X13225000D02*
X13225000D01*
X13225000D02*
Y6969999D01*
Y6844999D02*
Y6845000D01*
X13745000Y6484999D02*
Y6645000D01*
X13675002Y6714999D02*
X13745000Y6645000D01*
X13464999Y6714999D02*
X13675002D01*
X13614999Y7074999D02*
Y7195000D01*
X13530000Y7280000D02*
X13614999Y7195000D01*
X13120000Y7280000D02*
X13530000D01*
X13680000Y7074999D02*
Y7220000D01*
X13560001Y7340000D02*
X13680000Y7220000D01*
X13080000Y7340000D02*
X13560001D01*
X13939999Y7074999D02*
Y7170000D01*
X13970000Y7200000D01*
X14070001Y6579999D02*
X14150000D01*
X13850000Y6800000D02*
X14070001Y6579999D01*
X13850000Y6800000D02*
Y6960000D01*
X13810001Y7000000D02*
X13850000Y6960000D01*
X13810001Y7000000D02*
Y7074999D01*
X13875000D02*
Y7225000D01*
X13700000Y7400000D02*
X13875000Y7225000D01*
X12900000Y7400000D02*
X13700000D01*
X12939999Y7100000D02*
X13120000Y7280000D01*
X12630000Y6960000D02*
X12850000D01*
X12550001Y6880000D02*
X12630000Y6960000D01*
X12810001Y7070000D02*
X13080000Y7340000D01*
X12380000Y7070000D02*
X12810001D01*
X12320000Y7010000D02*
X12380000Y7070000D01*
X12320000Y6960000D02*
Y7010000D01*
X12700000Y7200000D02*
X12900000Y7400000D01*
X15550000Y5844999D02*
X15705000D01*
X15710001Y5850000D01*
X15395000Y5844999D02*
X15550000D01*
X15389999Y5850000D02*
X15395000Y5844999D01*
X15730000Y6549999D02*
X15730000Y6550000D01*
X15650000Y6430000D02*
Y6549999D01*
Y6430000D02*
X15650000Y6430000D01*
X15570000Y6549999D02*
X15650000D01*
X15730000D01*
X15650000D02*
Y6660000D01*
X15650000Y6660000D01*
X15010001Y6550000D02*
X15030000Y6530000D01*
X15010001Y6550000D02*
Y6920000D01*
X15677499Y5400000D02*
Y5472500D01*
X15550000Y5575000D02*
X15575000D01*
X15612500Y5537500D01*
X15677499Y5472500D01*
X15612500Y5400000D02*
Y5537500D01*
X15530000Y4790000D02*
X15547501Y4807500D01*
X15177499Y4952500D02*
X15339999Y4790000D01*
X15547501Y4807500D02*
Y4807500D01*
Y4840000D01*
Y4892500D01*
X15539999Y4900000D02*
X15547501Y4892500D01*
X15177499Y5120000D02*
X15397501Y4900000D01*
X15177499Y5032500D02*
Y5072500D01*
Y4952500D02*
Y4992500D01*
Y5032500D01*
Y5072500D02*
Y5102500D01*
Y5120000D01*
X15677499Y5087500D02*
X15710001Y5120000D01*
X15742500Y5087500D01*
X15937500Y4840000D02*
Y4947499D01*
X16039999Y5050000D01*
X15612500Y4840000D02*
X15677499D01*
X15742500D01*
X14595000Y5987500D02*
Y6140000D01*
Y5987500D02*
X14712500Y5870000D01*
X13614999Y6335000D02*
Y6484999D01*
Y6335000D02*
X13630000Y6320000D01*
X12900000Y5717000D02*
X13063000D01*
X13120000Y5660001D01*
Y5520000D02*
Y5660001D01*
Y5520000D02*
X13259999D01*
X14595000Y6300000D02*
X14700000D01*
X14595000Y6140000D02*
Y6300000D01*
Y6460000D01*
X14480000Y6300000D02*
X14595000D01*
X14589999Y5870000D02*
X14712500D01*
Y5742500D02*
Y5870000D01*
X14710001Y5740000D02*
X14712500Y5742500D01*
X14460001Y6140000D02*
X14595000D01*
X14460001Y6140000D02*
X14460001Y6140000D01*
X14595000Y6460000D02*
Y6665000D01*
X14589999Y6670000D02*
X14595000Y6665000D01*
X14460001Y5980000D02*
Y6140000D01*
X14460001Y6460000D02*
X14595000D01*
X14460001Y6460000D02*
X14460001Y6460000D01*
X15280000Y4680000D02*
X15370000D01*
X15230000Y4730000D02*
X15280000Y4680000D01*
X15230000Y4590000D02*
Y4730000D01*
X16180000Y4360000D02*
Y4630000D01*
X11270000Y4560000D02*
X11460000Y4750000D01*
X11560000Y7360000D02*
X11810000D01*
X12027500Y7142500D01*
Y6965000D02*
Y7142500D01*
X14589999Y6670000D02*
X14730000D01*
X14660001Y6740000D02*
X14730000Y6670000D01*
X14660001Y6740000D02*
Y6790000D01*
X13970000Y7200000D02*
X14189999D01*
X14880000Y6790000D02*
X15010001Y6920000D01*
X14660001Y6790000D02*
X14880000D01*
X14189999Y7200000D02*
X14420000Y6970000D01*
X12939999Y6850000D02*
Y7100000D01*
X12910001Y6820000D02*
X12939999Y6850000D01*
X12850000Y6820000D02*
X12910001D01*
D34*
X13760001Y5420000D02*
X13830000D01*
X13510001D02*
X13760001D01*
X13921249Y5221250D02*
X14060001Y5360000D01*
X13320000Y7060000D02*
X13370000Y7010000D01*
X13120000Y6950000D02*
Y6979999D01*
X12570000Y5180000D02*
Y5970000D01*
Y5120000D02*
Y5180000D01*
X12510000Y5120000D02*
X12510000D01*
X12510000D02*
X12570000Y5180000D01*
Y5060000D02*
Y5120000D01*
Y4980000D02*
Y5060000D01*
X12510000Y5120000D02*
X12570000D01*
X12510000D02*
X12570000Y5060000D01*
X13130000Y6639999D02*
X13189999Y6579999D01*
X13130000Y6639999D02*
Y6739999D01*
X14122501Y4920000D02*
X14182500Y4980000D01*
X13880000Y5080000D02*
X13880000Y5080000D01*
X13760001Y5080000D02*
X13880000D01*
X13760001Y5360000D02*
Y5420000D01*
Y5479999D01*
X13509999Y5420000D02*
X13510001Y5420000D01*
X13759999Y5360000D02*
X13760001Y5360000D01*
X15030000Y6260000D02*
X15030000Y6260001D01*
Y6390000D01*
X16039999Y5870000D02*
X16039999Y5869999D01*
Y5749999D02*
Y5869999D01*
X13449998Y6969999D02*
X13464999Y6984999D01*
X13289999Y6170000D02*
X13430000D01*
X13320000Y6739999D02*
X13345000Y6714999D01*
X13464999D01*
X13320000Y6969999D02*
X13449998D01*
X16120000Y6080000D02*
X16189999D01*
X16220000Y6110000D01*
Y6720000D01*
X16080000Y6860000D02*
X16220000Y6720000D01*
X15870000Y6860000D02*
X16080000D01*
X15810001Y6920000D02*
X15870000Y6860000D01*
X15710001Y6920000D02*
X15810001D01*
X15160001Y6549999D02*
Y6650000D01*
X15130000Y6680000D02*
X15160001Y6650000D01*
X15260001Y6920000D02*
X15289999Y6890000D01*
Y6700000D02*
Y6890000D01*
X15177499Y4992500D02*
X15350000Y4820000D01*
X15460001D01*
X15177499Y5102500D02*
X15410001Y4870000D01*
X15460001D01*
X13830000Y5420000D02*
X13880000Y5370000D01*
Y5480000D01*
X13910001Y5510000D01*
X13130000Y5070000D02*
X13239999D01*
X13120000Y5080000D02*
X13130000Y5070000D01*
X12850000Y5110000D02*
X12970000D01*
X12839999Y5120000D02*
X12850000Y5110000D01*
X13489999Y4560000D02*
X13650000Y4720000D01*
X13992500Y4930000D02*
X14182500Y5120000D01*
X13430000Y6170000D02*
X13650000D01*
X11240000Y7022500D02*
Y7140000D01*
X11420000Y7320000D01*
Y7360000D01*
X11240000Y7022500D02*
X11302500Y6960000D01*
X11420001D01*
X12140000Y6210000D02*
X12230000Y6300000D01*
X12140000Y6090000D02*
Y6210000D01*
X12230000Y6300000D02*
X12280000Y6250000D01*
Y6175000D02*
Y6250000D01*
X12230000Y6300000D02*
Y6300000D01*
Y6352500D01*
X12140000Y6035000D02*
X12230000Y6125000D01*
X12280000Y6175000D01*
X13921249Y5220000D02*
X14021249Y5120000D01*
X13921249Y5220000D02*
Y5221250D01*
X14060001Y5360000D02*
X14070000D01*
X14120000Y5120000D02*
X14182500D01*
X13930000Y4930000D02*
X14120000Y5120000D01*
X13650000Y4930000D02*
X13930000D01*
X13992500D01*
X14021249Y5120000D02*
X14120000D01*
X13489999Y4690000D02*
X13650000Y4850000D01*
Y4720000D02*
Y4850000D01*
Y4930000D01*
X13489999Y4610000D02*
Y4690000D01*
X11370000Y6910000D02*
X11420001Y6960000D01*
X11310000Y6910000D02*
X11370000D01*
X13130000Y6969999D02*
Y7150000D01*
X13180000Y7200000D01*
X13280000D01*
X13320000Y7160000D01*
X13320000Y6969999D02*
X13320000Y6970000D01*
X13439999Y7010000D02*
X13464999Y6984999D01*
X13370000Y7010000D02*
X13439999D01*
X13320000Y6970000D02*
Y7060000D01*
X13464999Y6984999D02*
Y7025001D01*
X13439999Y7050000D02*
X13464999Y7025001D01*
X13370000Y7050000D02*
X13439999D01*
X13320000Y7100000D02*
Y7160000D01*
Y7060000D02*
Y7075000D01*
Y7100000D01*
X13332500Y7087500D01*
X13370000Y7050000D01*
X13000000Y6400000D02*
Y6790000D01*
X13120000Y6910000D02*
Y6950000D01*
X13000000Y6790000D02*
X13030000Y6820000D01*
X13120000Y6910000D01*
X12570000Y5970000D02*
X12720000Y6120000D01*
X13000000Y6400000D01*
X12460000Y5120000D02*
X12510000D01*
X12570000Y4980000D02*
X12650000Y4900000D01*
X12680000Y4870000D01*
X12440000Y5120000D02*
X12530000Y5210000D01*
Y5980000D01*
X12970000Y6420000D01*
Y6760000D01*
X13000000Y6790000D01*
D35*
X11670001Y6240000D02*
X11860000D01*
X11620000Y6290000D02*
X11670001Y6240000D01*
X15387502Y6037500D02*
X15400000Y6049999D01*
X11962500Y6032500D02*
Y6267500D01*
X12056250Y6375000D02*
Y6576251D01*
X11620000Y6680000D02*
X11730000D01*
X12540001Y6510000D02*
Y6540000D01*
X12490000Y6460000D02*
Y6540000D01*
X12450000Y6460000D02*
Y6540000D01*
X15592499Y6037500D02*
X15795000D01*
X15657500Y5972500D02*
X15795000D01*
Y6037500D01*
X15205000Y5972500D02*
Y6037500D01*
X15920000Y4550000D02*
Y4679999D01*
X15939999Y4530000D02*
X16060001D01*
X15930000Y4540000D02*
X15939999Y4530000D01*
X16170000Y5490000D02*
X16189999Y5509999D01*
Y5610000D01*
X15889999Y5750000D02*
Y5890000D01*
X16189999Y5750000D02*
Y5890000D01*
X15789999Y5750000D02*
X15889999D01*
X11832500Y6375000D02*
Y6527500D01*
X11830000Y6530000D02*
X11832500Y6527500D01*
X11620000Y6615000D02*
X11655000Y6650000D01*
X11897500Y6277500D02*
Y6375000D01*
X11860000Y6240000D02*
X11897500Y6277500D01*
X11330000Y6345000D02*
X11620000D01*
X11735000Y6965000D02*
X11832500D01*
X11730000Y6970000D02*
X11735000Y6965000D01*
X11897500D02*
Y7062500D01*
X11860000Y7100000D02*
X11897500Y7062500D01*
X11730000Y7100000D02*
X11860000D01*
X11962500Y6965000D02*
Y7107500D01*
X11830000Y7240000D02*
X11962500Y7107500D01*
X11730000Y7240000D02*
X11830000D01*
X11962500Y6267500D02*
Y6375000D01*
Y6267500D02*
X12140000Y6090000D01*
Y6035000D02*
Y6090000D01*
X11998750Y6621250D02*
X12027500Y6592500D01*
X11970000Y6650000D02*
X11998750Y6621250D01*
X11330000Y6210000D02*
Y6345000D01*
X11330000Y6210000D02*
X11470000D01*
X11620000Y6290000D02*
Y6345000D01*
X11470000Y6210000D02*
X11610000D01*
X11750000D01*
X11330000D02*
X11330000Y6210000D01*
X11330000Y6210000D02*
X11330000Y6210000D01*
X12540000Y6540000D02*
X12540001Y6540000D01*
X12410000Y6540000D02*
X12410001Y6540000D01*
X12540000Y6420000D02*
X12540000Y6420000D01*
X12540001Y6420000D01*
X12410000D02*
Y6540000D01*
X12540001Y6540000D02*
X12550001D01*
X12700000D02*
X12850000D01*
X12700000Y6540000D02*
X12700000Y6540000D01*
X12700000Y6400000D02*
Y6540000D01*
X12580000Y6280000D02*
X12700000Y6400000D01*
X12410000Y6280000D02*
X12580000D01*
X12850000Y6680000D02*
Y6820000D01*
X12180000D02*
X12320000D01*
X12410001Y6680000D02*
Y6729999D01*
X12320000Y6820000D02*
X12410001Y6729999D01*
X12180000Y6960000D02*
X12320000D01*
X12027500Y6965000D02*
X12032501Y6960000D01*
X12180000D01*
X12410000Y5355000D02*
Y6280000D01*
X13309999Y5420000D02*
X13509999D01*
X13270000Y5380000D02*
X13309999Y5420000D01*
X15205000Y6362500D02*
X15362500D01*
X15400000Y6400000D01*
X15430000Y6430000D01*
Y6549999D01*
X15205000Y6427500D02*
X15257500D01*
X15300000Y6470000D01*
Y6549999D01*
X15795000Y6037500D02*
Y6102500D01*
X15205000Y6037500D02*
Y6102500D01*
X15400000Y6049999D02*
X15410001Y6039999D01*
X15400000Y6049999D02*
Y6190000D01*
X15347499Y6102500D02*
X15400000Y6049999D01*
X15322501Y5972500D02*
X15387502Y6037500D01*
X15652499Y6102500D02*
X15795000D01*
X15589999Y6039999D02*
X15652499Y6102500D01*
X15589999Y6039999D02*
X15592499Y6037500D01*
X15657500Y5972500D01*
X15889999Y5609999D02*
X16039999D01*
X15889999Y5610000D02*
X15889999Y5609999D01*
X15739999Y5560000D02*
X15839999D01*
X15889999Y5610000D01*
X15739999Y5700000D02*
X15789999Y5750000D01*
X14005000Y7074999D02*
X14055000D01*
X14150000Y6979999D01*
X13745000Y6935000D02*
Y7074999D01*
X13730000Y6920000D02*
X13745000Y6935000D01*
X12700000Y6680000D02*
Y6810000D01*
X16100000Y5980000D02*
X16189999Y5890000D01*
X15980000Y5980000D02*
X16100000D01*
X15205000Y6037500D02*
X15387502D01*
X15889999Y5890000D02*
X15980000Y5980000D01*
X15205000Y5972500D02*
X15322501D01*
X15205000Y6102500D02*
X15347499D01*
X13745000Y6255000D02*
Y6484999D01*
X13660001Y6170000D02*
X13745000Y6255000D01*
X13650000Y6170000D02*
X13660001D01*
X12070000Y6820000D02*
X12180000D01*
X12040000Y6790000D02*
X12070000Y6820000D01*
X11870000Y6790000D02*
X12040000D01*
X12480001Y6680000D02*
Y6789999D01*
X12480000Y6790000D02*
X12480001Y6789999D01*
X12410001Y6680000D02*
X12480001D01*
X12550001D01*
X12480000Y6790000D02*
Y6940000D01*
X13180000Y4870000D02*
X13489999Y4560000D01*
X12650000Y4860000D02*
X13139999D01*
X13439999Y4560000D01*
X13489999D01*
X13180000Y4870000D02*
X13230000D01*
X13489999Y4610000D01*
Y4560000D02*
Y4610000D01*
X12140000Y5085000D02*
X12230000Y5175000D01*
X12410000Y5355000D01*
X12085000Y6375000D02*
X12120000Y6410000D01*
Y6557499D01*
X12230000Y6667500D01*
X12080000Y6570000D02*
X12177500Y6667500D01*
X12080000Y6410000D02*
Y6570000D01*
X12177500Y6667500D02*
X12230000D01*
X12056250Y6576251D02*
X12120000Y6640000D01*
X12027500Y6375000D02*
X12056250D01*
X12085000D01*
X11620000Y6615000D02*
X11745000D01*
X11780000Y6650000D01*
X11710000Y6580000D02*
X11745000Y6615000D01*
X11655000Y6580000D02*
X11710000D01*
X11620000Y6615000D02*
X11655000Y6580000D01*
X11655000Y6650000D02*
X11780000D01*
X11997500Y6680000D02*
X12027500Y6650000D01*
X11580000Y6800000D02*
X11620000Y6760000D01*
X12027500Y6650000D02*
X12045000Y6667500D01*
X11920000Y6650000D02*
X12027500Y6542500D01*
Y6592500D01*
X11920000Y6650000D02*
X11970000D01*
X11890000D02*
X12027500Y6512500D01*
X11780000Y6650000D02*
X11890000D01*
X12027500Y6375000D02*
Y6512500D01*
Y6542500D01*
X11890000Y6650000D02*
X11920000D01*
X11980000Y6680000D02*
X11997500D01*
X11980000D02*
X12018750Y6641250D01*
X12050000Y6610000D01*
X11998750Y6621250D02*
X12018750Y6641250D01*
X12027500Y6650000D01*
X12060000Y6630000D02*
X12097500Y6667500D01*
X12045000D02*
X12097500D01*
X12177500D01*
X11730000Y6680000D02*
X11980000D01*
X12410000Y6420000D02*
X12450000Y6460000D01*
X12410001Y6540000D02*
X12450000D01*
X12410000Y6420000D02*
X12450000D01*
X12490000Y6460000D01*
X12450000Y6420000D02*
X12540000D01*
X12450000Y6540000D02*
X12490000D01*
X12540001D01*
X12550001Y6520000D02*
Y6540000D01*
X12510000Y6480000D02*
X12540001Y6510000D01*
X12550001Y6520000D01*
X12540001Y6420000D02*
Y6510000D01*
X12207500Y6690000D02*
X12230000Y6667500D01*
X12120000Y6690000D02*
X12207500D01*
X12097500Y6667500D02*
X12120000Y6690000D01*
X12570000Y4940000D02*
Y4980000D01*
X12440000Y5120000D02*
X12460000D01*
X12540000Y5040000D01*
Y4930000D02*
Y5040000D01*
Y4930000D02*
X12570000Y4900000D01*
X12720000D02*
X12750000Y4870000D01*
X12570000Y4900000D02*
X12610000D01*
X12650000D01*
X12720000D01*
X12570000Y4940000D02*
X12610000Y4900000D01*
X12650000Y4860000D01*
X12680000Y4870000D02*
X12750000D01*
X13180000D01*
D36*
X15680000Y4380000D02*
X15910001D01*
X15300000Y5630000D02*
X15580000D01*
X15139999Y5980000D02*
X15170000Y6010000D01*
X15089999Y5750000D02*
Y5940000D01*
X15795000Y6037500D02*
X15837500Y6080000D01*
X14082500Y5220000D02*
X14182500Y5120000D01*
Y4980000D02*
Y5120000D01*
X15764999Y4465000D02*
Y4490000D01*
X15780000Y4504999D02*
Y4679999D01*
X15764999Y4490000D02*
X15780000Y4504999D01*
X15855000Y4400000D02*
X15930000D01*
X15764999Y4490000D02*
X15855000Y4400000D01*
X15250000Y5770000D02*
X15320000Y5700000D01*
X15250000Y5770000D02*
Y5920000D01*
X15175002Y5575000D02*
X15550000D01*
X15027499Y5722500D02*
X15175002Y5575000D01*
X15027499Y5722500D02*
Y5870000D01*
X15550000Y5575000D02*
Y5600000D01*
X15320000Y5700000D02*
X15650000D01*
X15739999D01*
X15839999Y6000000D02*
X15920000Y6080000D01*
X15839999Y6000000D02*
Y6000000D01*
X15837500Y6080000D02*
X15920000D01*
X16120000D01*
X16170000Y6130000D01*
X15089999Y5750000D02*
X15210001Y5630000D01*
X15050000Y5980000D02*
X15089999Y5940000D01*
X14917500Y5980000D02*
X15050000D01*
X14913750Y5983750D02*
X14917500Y5980000D01*
X15550000Y5600000D02*
X15580000Y5630000D01*
X15650000Y5700000D01*
X15170000Y5760000D02*
X15300000Y5630000D01*
X15170000Y5760000D02*
Y5910000D01*
X15200000Y5940000D01*
X15089999D02*
X15200000D01*
X15210001Y5630000D02*
X15300000D01*
X15050000Y5980000D02*
X15139999D01*
X12230000Y6125000D02*
Y6300000D01*
X14182500Y4697500D02*
X14480000Y4400000D01*
X14550000Y4330000D01*
X14182500Y4697500D02*
Y4922500D01*
Y4980000D01*
X15280000Y4400000D02*
X15350000Y4330000D01*
X15139999Y4400000D02*
X15280000D01*
X14550000Y4330000D02*
X15350000D01*
X15630000D01*
X15230000Y4450000D02*
X15280000Y4400000D01*
X15230000Y4450000D02*
Y4450000D01*
X15189999D02*
X15230000D01*
X15139999Y4400000D02*
X15189999Y4450000D01*
X15630000Y4330000D02*
X15680000Y4380000D01*
X15764999Y4465000D01*
X15630000Y4330000D02*
X15860001D01*
X15910001Y4380000D01*
X15930000Y4400000D01*
X13759999Y5220000D02*
X13921249D01*
X14082500D01*
X11240000Y6890000D02*
Y7022500D01*
Y6890000D02*
X11260000Y6870000D01*
X13710001Y5730000D02*
X13850000D01*
X13710001D02*
X13760001Y5680000D01*
Y5619999D02*
Y5640000D01*
Y5680000D01*
Y5640000D02*
X13850000Y5730000D01*
D37*
X13089999Y6940000D02*
Y7150000D01*
X13350000Y7105000D02*
Y7170000D01*
X13289999Y7230000D02*
X13350000Y7170000D01*
X13170000Y7230000D02*
X13289999D01*
X13100000Y7160000D02*
X13170000Y7230000D01*
X13100000Y6999999D02*
Y7160000D01*
Y6999999D02*
X13120000Y6979999D01*
X13320000Y7075000D02*
X13332500Y7087500D01*
X13350000Y7105000D01*
X13130000Y6960000D02*
Y6969999D01*
X12760000Y6120000D02*
X13030000Y6390000D01*
X12720000Y6120000D02*
X12760000D01*
X13030000Y6860000D02*
X13120000Y6950000D01*
X13130000Y6960000D01*
X13030000Y6390000D02*
Y6820000D01*
Y6860000D01*
Y6880000D01*
X13089999Y6940000D01*
Y7150000D02*
X13100000Y7160000D01*
D38*
X12070000Y5085000D02*
Y5200000D01*
Y5015000D02*
Y5085000D01*
X11460000Y5671250D02*
X11598750D01*
X11330000Y6615000D02*
Y6710000D01*
X11420000Y6800000D01*
X15710001Y6920000D02*
X15839999Y6790000D01*
X16060001D01*
X16170000Y6680000D01*
Y6130000D02*
Y6680000D01*
X11420000Y5785000D02*
X11460000Y5745000D01*
X11672500Y5597500D02*
X12070000Y5200000D01*
X11420000Y5785000D02*
X11745000D01*
X12140000Y5390000D01*
X11460000Y5745000D02*
X11645000D01*
X12140000Y5250000D01*
Y5085000D02*
Y5250000D01*
Y5390000D01*
X11598750Y5671250D02*
X11672500Y5597500D01*
X11460000Y5671250D02*
Y5745000D01*
X12140000Y5390000D02*
X12230000Y5300000D01*
Y5175000D02*
Y5300000D01*
X11532500Y5597500D02*
X12045000Y5085000D01*
X11460000Y5597500D02*
X11532500D01*
X11672500D01*
X12045000Y5085000D02*
X12070000D01*
X12140000D01*
X11460000Y5597500D02*
Y5620000D01*
X11370000Y5710000D02*
X11460000Y5620000D01*
X11370000Y5710000D02*
Y5735000D01*
X11420000Y5785000D01*
X11460000Y5620000D02*
Y5671250D01*
X11620000Y6615000D02*
Y6680000D01*
Y6760000D01*
X11260000Y6740000D02*
X11290000Y6710000D01*
X11260000Y6740000D02*
Y6870000D01*
Y6685000D02*
Y6740000D01*
Y6685000D02*
X11330000Y6615000D01*
X11420000Y6705000D02*
Y6800000D01*
X11330000Y6615000D02*
X11420000Y6705000D01*
X11260000Y6740000D02*
X11320000Y6800000D01*
X11310000Y6910000D02*
X11420000Y6800000D01*
X11420000D01*
X11320000D02*
X11420000D01*
X11290000Y6710000D02*
X11330000D01*
D39*
X11610000Y6800000D02*
X11730000Y6680000D01*
X11420001Y6800000D02*
Y6960000D01*
X11420000Y6800000D02*
X11420001Y6800000D01*
X11580000D02*
Y6960000D01*
X11580000Y6800000D02*
X11580000Y6800000D01*
X11420001Y7100000D02*
X11430001Y7110000D01*
X11570000D02*
X11580000Y7100000D01*
X11730000D01*
X11500000Y7240000D02*
X11730000D01*
X11420001Y7160000D02*
X11500000Y7240000D01*
X11420001Y7100000D02*
Y7160000D01*
X15430000Y6700000D02*
Y6890000D01*
X15460001Y6920000D01*
X11560000Y6780000D02*
X11580000Y6800000D01*
X11560000Y6675000D02*
Y6780000D01*
Y6675000D02*
X11620000Y6615000D01*
X11580000Y6800000D02*
X11610000D01*
X13710001Y5630000D02*
Y5730000D01*
X13680000Y5600000D02*
X13699998Y5619999D01*
X13710001Y5630000D01*
D40*
X14864999Y6140000D02*
Y6460000D01*
Y6032500D02*
Y6140000D01*
Y6032500D02*
X14913750Y5983750D01*
X14917500Y5980000D02*
X15027499Y5870000D01*
D41*
X12070000Y5015000D02*
X12140000Y5085000D01*
X12070000Y4560000D02*
Y5015000D01*
X12140000Y4630000D02*
Y5085000D01*
X12070000Y4560000D02*
X12140000Y4630000D01*
D42*
X13489999Y4560000D02*
X13650000Y4400000D01*
X14045001Y4560000D02*
X14182500Y4697500D01*
X13820000Y4560000D02*
X14045001D01*
X13489999D02*
X13550000D01*
X13760001Y4770000D01*
X13739999Y4790000D02*
X13760001Y4770000D01*
X13739999Y4790000D02*
Y4830000D01*
X13900000D01*
X13910001Y4840000D01*
X13970000D01*
X14035001Y4775000D01*
X13550000Y4560000D02*
X13820000D01*
X14035001Y4775000D01*
X14182500Y4922500D01*
X14289999Y4760000D02*
X14650000Y4400000D01*
X14289999Y4760000D02*
Y4840000D01*
X14480000Y4400000D02*
X14650000D01*
X15139999D01*
X13650000D02*
X14160001D01*
X14280000Y4520000D01*
X14160001Y4400000D02*
X14480000D01*
D43*
X12690000Y4560000D02*
D03*
X13489999D02*
D03*
X11270000D02*
D03*
X12070000D02*
D03*
D44*
X12900000Y5717000D02*
D03*
Y5463000D02*
D03*
D45*
X15010001Y6920000D02*
D03*
X15460001D02*
D03*
X15260001D02*
D03*
D46*
X15710001D02*
D03*
D47*
X16017000Y7191000D02*
D03*
X14703000D02*
D03*
D48*
X15710001Y5045000D02*
D03*
Y5195000D02*
D03*
X15560001D02*
D03*
Y5045000D02*
D03*
X15860001D02*
D03*
Y5195000D02*
D03*
X13230000Y7110000D02*
D03*
X13225000Y6844999D02*
D03*
X13460001Y7170000D02*
D03*
D49*
X15600008Y7200004D02*
D03*
X15400008D02*
D03*
X15200008D02*
D03*
X14200008Y5600003D02*
D03*
X11600006Y4800003D02*
D03*
X11200006Y5600003D02*
D03*
X11300006Y5400003D02*
D03*
X12440000Y5120000D02*
D03*
X14870000Y5360000D02*
D03*
X13600000Y6830000D02*
D03*
X13880000Y5080000D02*
D03*
X16180000Y4630000D02*
D03*
X16060001Y4530000D02*
D03*
X16180000Y4770000D02*
D03*
Y4910000D02*
D03*
Y5050000D02*
D03*
X16060001Y5360000D02*
D03*
X16039999Y5190000D02*
D03*
X16170000Y5490000D02*
D03*
X16039999Y5870000D02*
D03*
X11830000Y6530000D02*
D03*
X11730000Y6970000D02*
D03*
X11470000Y6210000D02*
D03*
X11330000D02*
D03*
X11610000D02*
D03*
X11750000D02*
D03*
X12540000Y6420000D02*
D03*
X13270000Y5380000D02*
D03*
X15400000Y6400000D02*
D03*
Y6190000D02*
D03*
X15650000Y6430000D02*
D03*
Y6300000D02*
D03*
X15510001D02*
D03*
X15510001Y4680000D02*
D03*
X15370000D02*
D03*
X15360001Y4540000D02*
D03*
X16039999Y5050000D02*
D03*
Y4910000D02*
D03*
X14030000Y6780000D02*
D03*
X13730000Y6920000D02*
D03*
X13970000Y6910000D02*
D03*
X12700000Y6810000D02*
D03*
Y7200000D02*
D03*
X15710001Y5850000D02*
D03*
X15389999D02*
D03*
X15130000Y6680000D02*
D03*
X15650000Y6660000D02*
D03*
X13630000Y6320000D02*
D03*
X13880000Y5370000D02*
D03*
X13910001Y5510000D02*
D03*
X13710001Y5730000D02*
D03*
X13850000D02*
D03*
X13120000Y5080000D02*
D03*
X12839999Y5120000D02*
D03*
X13280000Y5800000D02*
D03*
X13130000Y5830000D02*
D03*
X15039999Y5500000D02*
D03*
X14700000Y6300000D02*
D03*
X14480000D02*
D03*
X14589999Y5870000D02*
D03*
X14710001Y5740000D02*
D03*
X14460001Y6140000D02*
D03*
X14589999Y6670000D02*
D03*
X14460001Y5980000D02*
D03*
Y6460000D02*
D03*
X13489999Y6450000D02*
D03*
X13350000D02*
D03*
X11100000Y7340000D02*
D03*
Y7200000D02*
D03*
Y7060000D02*
D03*
X15230000Y4730000D02*
D03*
Y4590000D02*
D03*
X16180000Y4360000D02*
D03*
X11210000Y6060000D02*
D03*
X11630000D02*
D03*
X11780000D02*
D03*
X12040000Y6790000D02*
D03*
X11870000D02*
D03*
X12480000D02*
D03*
Y6940000D02*
D03*
X11260000Y6740000D02*
D03*
Y6870000D02*
D03*
X14730000Y6670000D02*
D03*
X14660001Y6790000D02*
D03*
X13160001Y6310000D02*
D03*
X13220000Y6430000D02*
D03*
X15000000Y4610000D02*
D03*
X13920000Y5880000D02*
D03*
D50*
X14339999Y7320000D02*
D03*
X13950000D02*
D03*
%TF.MD5,bbae136d344eae11ac762a5af51b1e71*%
M02*
