G04 Layer_Color=8421504*
%FSLAX45Y45*%
%MOMM*%
%TF.FileFunction,Paste,Top*%
%TF.Part,Single*%
G01*
G75*
%TA.AperFunction,SMDPad,CuDef*%
%ADD11R,0.30000X1.20000*%
%ADD13O,0.45000X1.40000*%
%ADD14O,1.40000X0.45000*%
%ADD15R,0.60000X1.20000*%
%ADD16R,0.25000X0.75000*%
%ADD19R,0.90000X0.80000*%
%TA.AperFunction,ConnectorPad*%
%ADD20R,0.90000X0.80000*%
%TA.AperFunction,SMDPad,CuDef*%
%ADD21R,0.80000X0.90000*%
%ADD23R,1.00000X1.30000*%
%ADD24R,0.90000X0.95000*%
%ADD25R,0.95000X0.90000*%
%ADD26R,1.10000X2.60000*%
%ADD27R,1.70000X1.10000*%
%ADD28R,1.10000X1.70000*%
%ADD29R,2.60000X1.10000*%
%TA.AperFunction,NonConductor*%
%ADD51R,2.10000X2.30000*%
%TA.AperFunction,SMDPad,CuDef*%
%ADD52R,3.45000X5.10000*%
%ADD53R,2.28000X0.67000*%
%ADD54R,3.10000X3.70000*%
D11*
X15482500Y5400000D02*
D03*
X15547501D02*
D03*
X15612500D02*
D03*
X15677499D02*
D03*
X15742500D02*
D03*
X15807500D02*
D03*
X15872501D02*
D03*
X15937500D02*
D03*
Y4840000D02*
D03*
X15872501D02*
D03*
X15807500D02*
D03*
X15742500D02*
D03*
X15677499D02*
D03*
X15612500D02*
D03*
X15547501D02*
D03*
X15482500D02*
D03*
D13*
X13614999Y6484999D02*
D03*
X13680000D02*
D03*
X13745000D02*
D03*
X13810001D02*
D03*
X13875000D02*
D03*
X13939999D02*
D03*
X14005000D02*
D03*
X13614999Y7074999D02*
D03*
X13680000D02*
D03*
X13745000D02*
D03*
X13810001D02*
D03*
X13875000D02*
D03*
X13939999D02*
D03*
X14005000D02*
D03*
X12027500Y6965000D02*
D03*
X11962500D02*
D03*
X11897500D02*
D03*
X11832500D02*
D03*
X12027500Y6375000D02*
D03*
X11962500D02*
D03*
X11897500D02*
D03*
X11832500D02*
D03*
D14*
X15795000Y5972500D02*
D03*
Y6037500D02*
D03*
Y6102500D02*
D03*
Y6167500D02*
D03*
Y6232500D02*
D03*
Y6297500D02*
D03*
Y6362500D02*
D03*
Y6427500D02*
D03*
X15205000Y5972500D02*
D03*
Y6037500D02*
D03*
Y6102500D02*
D03*
Y6167500D02*
D03*
Y6232500D02*
D03*
Y6297500D02*
D03*
Y6362500D02*
D03*
Y6427500D02*
D03*
D15*
X13320000Y6969999D02*
D03*
X13225000D02*
D03*
X13130000D02*
D03*
Y6739999D02*
D03*
X13320000D02*
D03*
D16*
X13609999Y5517000D02*
D03*
X13560001D02*
D03*
X13509999D02*
D03*
X13459999D02*
D03*
X13409999D02*
D03*
X13609999Y5323000D02*
D03*
X13560001D02*
D03*
X13509999D02*
D03*
X13459999D02*
D03*
X13409999D02*
D03*
D19*
X14150000Y6839999D02*
D03*
Y6979999D02*
D03*
X16039999Y5749999D02*
D03*
Y5609999D02*
D03*
X15930000Y4540000D02*
D03*
Y4400000D02*
D03*
X15889999Y5610000D02*
D03*
Y5750000D02*
D03*
X16030000Y6350000D02*
D03*
Y6210000D02*
D03*
X15030000Y6120000D02*
D03*
Y6260000D02*
D03*
X12850000Y6820000D02*
D03*
Y6960000D02*
D03*
X12320000Y6820000D02*
D03*
Y6960000D02*
D03*
X13560001Y5800000D02*
D03*
Y5660000D02*
D03*
X13120000Y5380000D02*
D03*
Y5520000D02*
D03*
X12410001Y6680000D02*
D03*
Y6540000D02*
D03*
X12850000D02*
D03*
Y6680000D02*
D03*
X13260001Y5660000D02*
D03*
Y5520000D02*
D03*
X11420001Y7100000D02*
D03*
Y6960000D02*
D03*
X12410000Y6280000D02*
D03*
Y6420000D02*
D03*
X12700000Y6540000D02*
D03*
Y6680000D02*
D03*
X11580000Y7100000D02*
D03*
Y6960000D02*
D03*
X12970000Y5250000D02*
D03*
Y5110000D02*
D03*
X14150000Y6719999D02*
D03*
Y6579999D02*
D03*
X13430000Y6170000D02*
D03*
Y6310000D02*
D03*
X13289999Y6170000D02*
D03*
Y6310000D02*
D03*
X15030000Y6530000D02*
D03*
Y6390000D02*
D03*
X15739999Y5560000D02*
D03*
Y5700000D02*
D03*
X13464999Y6845000D02*
D03*
Y6984999D02*
D03*
X13464999Y6714999D02*
D03*
Y6574999D02*
D03*
X12180000Y6820000D02*
D03*
Y6960000D02*
D03*
X13420000Y5800000D02*
D03*
Y5660000D02*
D03*
X12550001Y6680000D02*
D03*
Y6540000D02*
D03*
X11730000Y7240000D02*
D03*
Y7100000D02*
D03*
X13759999Y5220000D02*
D03*
Y5360000D02*
D03*
X13760001Y5619999D02*
D03*
Y5479999D02*
D03*
D20*
X16189999Y5190000D02*
D03*
Y5330000D02*
D03*
Y5610000D02*
D03*
Y5750000D02*
D03*
D21*
X16060001Y4679999D02*
D03*
X15920000D02*
D03*
X15300000Y6549999D02*
D03*
X15160001D02*
D03*
X15430000Y6700000D02*
D03*
X15289999D02*
D03*
X13760001Y5080000D02*
D03*
X13620000D02*
D03*
X11560000Y7360000D02*
D03*
X11420000D02*
D03*
X13239999Y5070000D02*
D03*
X13380000D02*
D03*
X13510001Y4930000D02*
D03*
X13650000D02*
D03*
X15570000Y6549999D02*
D03*
X15430000D02*
D03*
X15730000Y6550000D02*
D03*
X15870000D02*
D03*
X13330000Y6579999D02*
D03*
X13189999D02*
D03*
X15780000Y4679999D02*
D03*
X15639999D02*
D03*
D23*
X11420000Y6800000D02*
D03*
X11580000D02*
D03*
D24*
X15027499Y5870000D02*
D03*
X14712500D02*
D03*
D25*
X11240000Y7022500D02*
D03*
Y7337500D02*
D03*
X11460000Y5597500D02*
D03*
Y5282500D02*
D03*
X12230000Y6667500D02*
D03*
Y6352500D02*
D03*
D26*
X14595000Y6460000D02*
D03*
X14864999D02*
D03*
X14595000Y6140000D02*
D03*
X14864999D02*
D03*
D27*
X15550000Y5844999D02*
D03*
Y5575000D02*
D03*
X11620000Y6345000D02*
D03*
Y6615000D02*
D03*
D28*
X15495000Y4490000D02*
D03*
X15764999D02*
D03*
D29*
X11420000Y6055000D02*
D03*
Y5785000D02*
D03*
X11330000Y6345000D02*
D03*
Y6615000D02*
D03*
D51*
X15710001Y5119999D02*
D03*
D52*
X14182500Y5120000D02*
D03*
X15177499D02*
D03*
D53*
X13509999Y5420000D02*
D03*
D54*
X12140000Y5085000D02*
D03*
Y6035000D02*
D03*
%TF.MD5,e10258ef2348f5a051e9a266ae78be7c*%
M02*
