G04 Layer_Color=65535*
%FSLAX45Y45*%
%MOMM*%
%TF.FileFunction,Legend,Top*%
%TF.Part,Single*%
G01*
G75*
%TA.AperFunction,NonConductor*%
%ADD84C,0.20000*%
%ADD85C,0.25000*%
%ADD86C,0.15000*%
%ADD87C,0.25400*%
%ADD88C,0.50000*%
D84*
X15414999Y4840000D02*
G03*
X15414999Y4840000I-15000J0D01*
G01*
X13555000Y6594999D02*
Y6964999D01*
X14064999Y6594999D02*
Y6964999D01*
X13555000Y6594999D02*
X14064999D01*
X13555000Y6964999D02*
X14064999D01*
X15685001Y5945000D02*
Y6455000D01*
X15314999Y5945000D02*
Y6455000D01*
Y5945000D02*
X15685001D01*
X15314999Y6455000D02*
X15685001D01*
X12085000Y6485000D02*
Y6855000D01*
X11775000Y6485000D02*
Y6855000D01*
X12085000D01*
X11775000Y6485000D02*
X12085000D01*
X13662498Y5540000D02*
X13680000D01*
X13339999D02*
X13357500D01*
X13662498Y5300000D02*
X13680000D01*
X13339999D02*
X13357500D01*
X13680000Y5489500D02*
Y5540000D01*
Y5300000D02*
Y5350500D01*
X13339999Y5489500D02*
Y5540000D01*
Y5300000D02*
Y5350500D01*
X15500000Y5980000D02*
Y6099999D01*
X11500000Y6745000D02*
Y6855000D01*
X14810001Y5870000D02*
X14839999D01*
X14910001D02*
X14930000D01*
X14839999Y5820000D02*
Y5910000D01*
Y5820000D02*
X14910001Y5870000D01*
X14839999Y5910000D02*
X14910001Y5870000D01*
Y5820000D02*
Y5920000D01*
X11240000Y7210000D02*
Y7240000D01*
Y7120000D02*
Y7140000D01*
X11190000Y7210000D02*
X11280000D01*
X11190000D02*
X11240000Y7140000D01*
X11280000Y7210000D01*
X11190000Y7140000D02*
X11290000D01*
X11460000Y5380000D02*
Y5410000D01*
Y5480000D02*
Y5500000D01*
X11420000Y5410000D02*
X11510000D01*
X11460000Y5480000D02*
X11510000Y5410000D01*
X11420000D02*
X11460000Y5480000D01*
X11410000D02*
X11510000D01*
X12230000Y6450000D02*
Y6480000D01*
Y6550000D02*
Y6570000D01*
X12190000Y6480000D02*
X12280000D01*
X12230000Y6550000D02*
X12280000Y6480000D01*
X12190000D02*
X12230000Y6550000D01*
X12180000D02*
X12280000D01*
X14689999Y6580000D02*
X14770000D01*
X14689999Y6340000D02*
X14770000D01*
X14689999Y6260000D02*
X14770000D01*
X14689999Y6020000D02*
X14770000D01*
X15625000Y5670000D02*
Y5749999D01*
X15475000Y5670000D02*
Y5749999D01*
X15589999Y4565000D02*
X15670000D01*
X15589999Y4415000D02*
X15670000D01*
X11540000Y5880000D02*
Y5960000D01*
X11300000Y5880000D02*
Y5960000D01*
X11210000Y6440000D02*
Y6520000D01*
X11450000Y6440000D02*
Y6520000D01*
X11545000Y6440000D02*
Y6520000D01*
X11695000Y6440000D02*
Y6520000D01*
X12773000Y5590000D02*
X13027000D01*
Y5336000D02*
Y5590000D01*
X12773000Y5336000D02*
X13027000D01*
Y5590000D02*
Y5844000D01*
X12773000Y5590000D02*
Y5844000D01*
Y5336000D02*
Y5590000D01*
Y5844000D02*
X13027000D01*
X14230000Y6609974D02*
X14283316D01*
X14256657D01*
Y6530000D01*
X14309975D02*
Y6609974D01*
X14349960D01*
X14363290Y6596645D01*
Y6569987D01*
X14349960Y6556658D01*
X14309975D01*
X14443263Y6609974D02*
X14389948D01*
Y6569987D01*
X14416606Y6583316D01*
X14429936D01*
X14443263Y6569987D01*
Y6543329D01*
X14429936Y6530000D01*
X14403278D01*
X14389948Y6543329D01*
X14010001Y5899974D02*
X14063316D01*
X14036658D01*
Y5820000D01*
X14089973D02*
Y5899974D01*
X14129961D01*
X14143291Y5886645D01*
Y5859987D01*
X14129961Y5846658D01*
X14089973D01*
X14209937Y5820000D02*
Y5899974D01*
X14169948Y5859987D01*
X14223264D01*
X13770000Y6369974D02*
X13823315D01*
X13796658D01*
Y6290000D01*
X13849974D02*
Y6369974D01*
X13889961D01*
X13903290Y6356645D01*
Y6329987D01*
X13889961Y6316658D01*
X13849974D01*
X13929948Y6356645D02*
X13943277Y6369974D01*
X13969936D01*
X13983264Y6356645D01*
Y6343316D01*
X13969936Y6329987D01*
X13956606D01*
X13969936D01*
X13983264Y6316658D01*
Y6303329D01*
X13969936Y6290000D01*
X13943277D01*
X13929948Y6303329D01*
X14230000Y7029974D02*
X14283316D01*
X14256657D01*
Y6950000D01*
X14309975D02*
Y7029974D01*
X14349960D01*
X14363290Y7016645D01*
Y6989987D01*
X14349960Y6976658D01*
X14309975D01*
X14443263Y6950000D02*
X14389948D01*
X14443263Y7003316D01*
Y7016645D01*
X14429936Y7029974D01*
X14403278D01*
X14389948Y7016645D01*
X13560001Y6059974D02*
X13613316D01*
X13586658D01*
Y5980000D01*
X13639973D02*
Y6059974D01*
X13679961D01*
X13693291Y6046645D01*
Y6019987D01*
X13679961Y6006658D01*
X13639973D01*
X13719948Y5980000D02*
X13746606D01*
X13733278D01*
Y6059974D01*
X13719948Y6046645D01*
D85*
X14095000Y7074999D02*
G03*
X14095000Y7074999I-12500J0D01*
G01*
X15814999Y5895000D02*
G03*
X15814999Y5895000I-20000J0D01*
G01*
X11772500Y6380000D02*
G03*
X11772500Y6380000I-12500J0D01*
G01*
X13700000Y6095000D02*
G03*
X13700000Y6245000I0J75000D01*
G01*
X13600000D02*
G03*
X13600000Y6095000I0J-75000D01*
G01*
X14060001Y6085000D02*
G03*
X14060001Y5935000I0J-75000D01*
G01*
X14160001D02*
G03*
X14160001Y6085000I0J75000D01*
G01*
Y6145000D02*
G03*
X14160001Y6295000I0J75000D01*
G01*
X14060001D02*
G03*
X14060001Y6145000I0J-75000D01*
G01*
X14245000Y6730000D02*
G03*
X14395000Y6730000I75000J0D01*
G01*
Y6830000D02*
G03*
X14245000Y6830000I-75000J0D01*
G01*
X14139999Y6495000D02*
G03*
X14139999Y6345000I0J-75000D01*
G01*
X14239999D02*
G03*
X14239999Y6495000I0J75000D01*
G01*
X13600000Y6245000D02*
X13700000D01*
X13600000Y6095000D02*
X13700000D01*
X14060001Y5935000D02*
X14160001D01*
X14060001Y6085000D02*
X14160001D01*
X14060001Y6295000D02*
X14160001D01*
X14060001Y6145000D02*
X14160001D01*
X14395000Y6730000D02*
Y6830000D01*
X14245000Y6730000D02*
Y6830000D01*
X14139999Y6345000D02*
X14239999D01*
X14139999Y6495000D02*
X14239999D01*
X12800000Y5920000D02*
Y6049958D01*
X12864980D01*
X12886639Y6028298D01*
Y5984979D01*
X12864980Y5963320D01*
X12800000D01*
X12929958Y6028298D02*
X12951617Y6049958D01*
X12994937D01*
X13016597Y6028298D01*
Y6006639D01*
X12994937Y5984979D01*
X12973277D01*
X12994937D01*
X13016597Y5963320D01*
Y5941660D01*
X12994937Y5920000D01*
X12951617D01*
X12929958Y5941660D01*
X13120000Y4364976D02*
X13219968D01*
X13169984Y4414960D02*
Y4314992D01*
X11700000Y4364976D02*
X11799968D01*
X11749984Y4414960D02*
Y4314992D01*
X11540000Y4364976D02*
X11639968D01*
X12960001D02*
X13059969D01*
D86*
X13720000Y5570000D02*
G03*
X13720000Y5570000I-10000J0D01*
G01*
X14639999Y5937500D02*
Y5961600D01*
X15098599D01*
X15111301D01*
Y5895400D02*
Y5961600D01*
X15098599Y5895400D02*
X15111301D01*
X15098599D02*
Y5961600D01*
Y5778400D02*
Y5844600D01*
X15111301D01*
Y5778400D02*
Y5844600D01*
X15098599Y5778400D02*
X15111301D01*
X14639999D02*
X15098599D01*
X14639999D02*
Y5802500D01*
X11307500Y7410000D02*
X11331600D01*
Y6951400D02*
Y7410000D01*
Y6938700D02*
Y6951400D01*
X11265400Y6938700D02*
X11331600D01*
X11265400D02*
Y6951400D01*
X11331600D01*
X11148400D02*
X11214600D01*
Y6938700D02*
Y6951400D01*
X11148400Y6938700D02*
X11214600D01*
X11148400D02*
Y6951400D01*
Y7410000D01*
X11172500D01*
X11368400Y5210000D02*
X11392500D01*
X11368400D02*
Y5668600D01*
Y5681300D01*
X11434600D01*
Y5668600D02*
Y5681300D01*
X11368400Y5668600D02*
X11434600D01*
X11485400D02*
X11551600D01*
X11485400D02*
Y5681300D01*
X11551600D01*
Y5668600D02*
Y5681300D01*
Y5210000D02*
Y5668600D01*
X11527500Y5210000D02*
X11551600D01*
X12138400Y6280000D02*
X12162500D01*
X12138400D02*
Y6738600D01*
Y6751300D01*
X12204600D01*
Y6738600D02*
Y6751300D01*
X12138400Y6738600D02*
X12204600D01*
X12255400D02*
X12321600D01*
X12255400D02*
Y6751300D01*
X12321600D01*
Y6738600D02*
Y6751300D01*
Y6280000D02*
Y6738600D01*
X12297500Y6280000D02*
X12321600D01*
X16160001Y6793000D02*
Y8245000D01*
X14560001Y6793000D02*
X16160001D01*
X14560001D02*
Y8245000D01*
X16160001D01*
X11979983Y7192835D02*
X11985696Y7175696D01*
Y7209974D01*
X11979983Y7192835D01*
X11968557Y7204261D01*
X11951418Y7209974D01*
X11939992D01*
X11922852Y7204261D01*
X11911426Y7192835D01*
X11905713Y7181409D01*
X11900000Y7164270D01*
Y7135705D01*
X11905713Y7118565D01*
X11911426Y7107139D01*
X11922852Y7095713D01*
X11939992Y7090000D01*
X11951418D01*
X11968557Y7095713D01*
X11979983Y7107139D01*
X11985696Y7118565D01*
X11939992Y7209974D02*
X11928565Y7204261D01*
X11917139Y7192835D01*
X11911426Y7181409D01*
X11905713Y7164270D01*
Y7135705D01*
X11911426Y7118565D01*
X11917139Y7107139D01*
X11928565Y7095713D01*
X11939992Y7090000D01*
X12019974Y7209974D02*
Y7090000D01*
X12025687Y7209974D02*
Y7090000D01*
Y7152844D02*
X12037114Y7164270D01*
X12054253Y7169983D01*
X12065679D01*
X12082818Y7164270D01*
X12088531Y7152844D01*
Y7090000D01*
X12065679Y7169983D02*
X12077105Y7164270D01*
X12082818Y7152844D01*
Y7090000D01*
X12002835Y7209974D02*
X12025687D01*
X12002835Y7090000D02*
X12042827D01*
X12065679D02*
X12105670D01*
X12132522Y7158557D02*
Y7152844D01*
X12126809D01*
Y7158557D01*
X12132522Y7164270D01*
X12143948Y7169983D01*
X12166800D01*
X12178226Y7164270D01*
X12183939Y7158557D01*
X12189652Y7147131D01*
Y7107139D01*
X12195365Y7095713D01*
X12201078Y7090000D01*
X12183939Y7158557D02*
Y7107139D01*
X12189652Y7095713D01*
X12201078Y7090000D01*
X12206792D01*
X12183939Y7147131D02*
X12178226Y7141418D01*
X12143948Y7135705D01*
X12126809Y7129992D01*
X12121096Y7118565D01*
Y7107139D01*
X12126809Y7095713D01*
X12143948Y7090000D01*
X12161087D01*
X12172513Y7095713D01*
X12183939Y7107139D01*
X12143948Y7135705D02*
X12132522Y7129992D01*
X12126809Y7118565D01*
Y7107139D01*
X12132522Y7095713D01*
X12143948Y7090000D01*
X12241070Y7169983D02*
Y7090000D01*
X12246783Y7169983D02*
Y7090000D01*
Y7135705D02*
X12252496Y7152844D01*
X12263922Y7164270D01*
X12275348Y7169983D01*
X12292487D01*
X12298201Y7164270D01*
Y7158557D01*
X12292487Y7152844D01*
X12286775Y7158557D01*
X12292487Y7164270D01*
X12223931Y7169983D02*
X12246783D01*
X12223931Y7090000D02*
X12263922D01*
X12350761Y7169983D02*
X12339334Y7164270D01*
X12333622Y7158557D01*
X12327909Y7147131D01*
Y7135705D01*
X12333622Y7124278D01*
X12339334Y7118565D01*
X12350761Y7112852D01*
X12362187D01*
X12373613Y7118565D01*
X12379326Y7124278D01*
X12385039Y7135705D01*
Y7147131D01*
X12379326Y7158557D01*
X12373613Y7164270D01*
X12362187Y7169983D01*
X12350761D01*
X12339334Y7164270D02*
X12333622Y7152844D01*
Y7129992D01*
X12339334Y7118565D01*
X12373613D02*
X12379326Y7129992D01*
Y7152844D01*
X12373613Y7164270D01*
X12379326Y7158557D02*
X12385039Y7164270D01*
X12396465Y7169983D01*
Y7164270D01*
X12385039D01*
X12333622Y7124278D02*
X12327909Y7118565D01*
X12322195Y7107139D01*
Y7101426D01*
X12327909Y7090000D01*
X12345048Y7084287D01*
X12373613D01*
X12390752Y7078574D01*
X12396465Y7072861D01*
X12322195Y7101426D02*
X12327909Y7095713D01*
X12345048Y7090000D01*
X12373613D01*
X12390752Y7084287D01*
X12396465Y7072861D01*
Y7067148D01*
X12390752Y7055722D01*
X12373613Y7050009D01*
X12339334D01*
X12322195Y7055722D01*
X12316482Y7067148D01*
Y7072861D01*
X12322195Y7084287D01*
X12339334Y7090000D01*
X12419889Y7135705D02*
X12488446D01*
Y7147131D01*
X12482732Y7158557D01*
X12477019Y7164270D01*
X12465593Y7169983D01*
X12448454D01*
X12431315Y7164270D01*
X12419889Y7152844D01*
X12414176Y7135705D01*
Y7124278D01*
X12419889Y7107139D01*
X12431315Y7095713D01*
X12448454Y7090000D01*
X12459880D01*
X12477019Y7095713D01*
X12488446Y7107139D01*
X12482732Y7135705D02*
Y7152844D01*
X12477019Y7164270D01*
X12448454Y7169983D02*
X12437028Y7164270D01*
X12425602Y7152844D01*
X12419889Y7135705D01*
Y7124278D01*
X12425602Y7107139D01*
X12437028Y7095713D01*
X12448454Y7090000D01*
X12523866Y7169983D02*
Y7090000D01*
X12529579Y7169983D02*
Y7090000D01*
Y7135705D02*
X12535293Y7152844D01*
X12546719Y7164270D01*
X12558145Y7169983D01*
X12575284D01*
X12580997Y7164270D01*
Y7158557D01*
X12575284Y7152844D01*
X12569571Y7158557D01*
X12575284Y7164270D01*
X12506727Y7169983D02*
X12529579D01*
X12506727Y7090000D02*
X12546719D01*
X11874270Y7382835D02*
X11879983Y7399974D01*
Y7365696D01*
X11874270Y7382835D01*
X11862844Y7394261D01*
X11845705Y7399974D01*
X11828565D01*
X11811426Y7394261D01*
X11800000Y7382835D01*
Y7371409D01*
X11805713Y7359983D01*
X11811426Y7354270D01*
X11822852Y7348557D01*
X11857131Y7337131D01*
X11868557Y7331417D01*
X11879983Y7319991D01*
X11800000Y7371409D02*
X11811426Y7359983D01*
X11822852Y7354270D01*
X11857131Y7342844D01*
X11868557Y7337131D01*
X11874270Y7331417D01*
X11879983Y7319991D01*
Y7297139D01*
X11868557Y7285713D01*
X11851417Y7280000D01*
X11834278D01*
X11817139Y7285713D01*
X11805713Y7297139D01*
X11800000Y7314278D01*
Y7280000D01*
X11805713Y7297139D01*
X11931972Y7359983D02*
X11914833Y7354270D01*
X11903406Y7342844D01*
X11897694Y7325704D01*
Y7314278D01*
X11903406Y7297139D01*
X11914833Y7285713D01*
X11931972Y7280000D01*
X11943398D01*
X11960537Y7285713D01*
X11971963Y7297139D01*
X11977676Y7314278D01*
Y7325704D01*
X11971963Y7342844D01*
X11960537Y7354270D01*
X11943398Y7359983D01*
X11931972D01*
X11920546Y7354270D01*
X11909120Y7342844D01*
X11903406Y7325704D01*
Y7314278D01*
X11909120Y7297139D01*
X11920546Y7285713D01*
X11931972Y7280000D01*
X11943398D02*
X11954824Y7285713D01*
X11966250Y7297139D01*
X11971963Y7314278D01*
Y7325704D01*
X11966250Y7342844D01*
X11954824Y7354270D01*
X11943398Y7359983D01*
X12012526Y7399974D02*
Y7280000D01*
X12018239Y7399974D02*
Y7280000D01*
X11995387Y7399974D02*
X12018239D01*
X11995387Y7280000D02*
X12035379D01*
X12068514Y7348557D02*
Y7342844D01*
X12062801D01*
Y7348557D01*
X12068514Y7354270D01*
X12079940Y7359983D01*
X12102793D01*
X12114219Y7354270D01*
X12119932Y7348557D01*
X12125645Y7337131D01*
Y7297139D01*
X12131358Y7285713D01*
X12137071Y7280000D01*
X12119932Y7348557D02*
Y7297139D01*
X12125645Y7285713D01*
X12137071Y7280000D01*
X12142784D01*
X12119932Y7337131D02*
X12114219Y7331417D01*
X12079940Y7325704D01*
X12062801Y7319991D01*
X12057088Y7308565D01*
Y7297139D01*
X12062801Y7285713D01*
X12079940Y7280000D01*
X12097080D01*
X12108506Y7285713D01*
X12119932Y7297139D01*
X12079940Y7325704D02*
X12068514Y7319991D01*
X12062801Y7308565D01*
Y7297139D01*
X12068514Y7285713D01*
X12079940Y7280000D01*
X12177063Y7359983D02*
Y7280000D01*
X12182775Y7359983D02*
Y7280000D01*
Y7325704D02*
X12188489Y7342844D01*
X12199915Y7354270D01*
X12211341Y7359983D01*
X12228480D01*
X12234193Y7354270D01*
Y7348557D01*
X12228480Y7342844D01*
X12222767Y7348557D01*
X12228480Y7354270D01*
X12159923Y7359983D02*
X12182775D01*
X12159923Y7280000D02*
X12199915D01*
X12377591Y7399974D02*
Y7314278D01*
X12383304Y7297139D01*
X12394730Y7285713D01*
X12411869Y7280000D01*
X12423295D01*
X12440435Y7285713D01*
X12451861Y7297139D01*
X12457574Y7314278D01*
Y7399974D01*
X12383304D02*
Y7314278D01*
X12389017Y7297139D01*
X12400443Y7285713D01*
X12411869Y7280000D01*
X12360452Y7399974D02*
X12400443D01*
X12440435D02*
X12474713D01*
X12563265Y7382835D02*
X12568978Y7399974D01*
Y7365696D01*
X12563265Y7382835D01*
X12551839Y7394261D01*
X12534700Y7399974D01*
X12517561D01*
X12500422Y7394261D01*
X12488996Y7382835D01*
Y7371409D01*
X12494709Y7359983D01*
X12500422Y7354270D01*
X12511848Y7348557D01*
X12546126Y7337131D01*
X12557552Y7331417D01*
X12568978Y7319991D01*
X12488996Y7371409D02*
X12500422Y7359983D01*
X12511848Y7354270D01*
X12546126Y7342844D01*
X12557552Y7337131D01*
X12563265Y7331417D01*
X12568978Y7319991D01*
Y7297139D01*
X12557552Y7285713D01*
X12540413Y7280000D01*
X12523274D01*
X12506135Y7285713D01*
X12494709Y7297139D01*
X12488996Y7314278D01*
Y7280000D01*
X12494709Y7297139D01*
X12603828Y7399974D02*
Y7280000D01*
X12609541Y7399974D02*
Y7280000D01*
X12586689Y7399974D02*
X12655246D01*
X12672385Y7394261D01*
X12678098Y7388548D01*
X12683811Y7377122D01*
Y7365696D01*
X12678098Y7354270D01*
X12672385Y7348557D01*
X12655246Y7342844D01*
Y7399974D02*
X12666672Y7394261D01*
X12672385Y7388548D01*
X12678098Y7377122D01*
Y7365696D01*
X12672385Y7354270D01*
X12666672Y7348557D01*
X12655246Y7342844D01*
X12609541D02*
X12655246D01*
X12672385Y7337131D01*
X12678098Y7331417D01*
X12683811Y7319991D01*
Y7302852D01*
X12678098Y7291426D01*
X12672385Y7285713D01*
X12655246Y7280000D01*
X12586689D01*
X12655246Y7342844D02*
X12666672Y7337131D01*
X12672385Y7331417D01*
X12678098Y7319991D01*
Y7302852D01*
X12672385Y7291426D01*
X12666672Y7285713D01*
X12655246Y7280000D01*
X11120935Y6120000D02*
X11125696Y6110478D01*
X11139978Y6096196D01*
X11040000D01*
X11135218Y6100956D02*
X11040000D01*
Y6120000D02*
Y6077152D01*
X11120935Y6060013D02*
X11125696Y6050491D01*
X11139978Y6036208D01*
X11040000D01*
X11135218Y6040969D02*
X11040000D01*
Y6060013D02*
Y6017165D01*
X11049521Y5995265D02*
X11044761Y6000026D01*
X11040000Y5995265D01*
X11044761Y5990504D01*
X11049521Y5995265D01*
X11120935Y5965271D02*
X11116174Y5960510D01*
X11111413Y5965271D01*
X11116174Y5970032D01*
X11120935D01*
X11130457Y5965271D01*
X11135218Y5960510D01*
X11139978Y5946228D01*
Y5927184D01*
X11135218Y5912901D01*
X11130457Y5908141D01*
X11120935Y5903380D01*
X11111413D01*
X11101891Y5908141D01*
X11092369Y5922423D01*
X11082848Y5946228D01*
X11078087Y5955749D01*
X11068565Y5965271D01*
X11054282Y5970032D01*
X11040000D01*
X11139978Y5927184D02*
X11135218Y5917662D01*
X11130457Y5912901D01*
X11120935Y5908141D01*
X11111413D01*
X11101891Y5912901D01*
X11092369Y5927184D01*
X11082848Y5946228D01*
X11049521Y5970032D02*
X11054282Y5965271D01*
Y5955749D01*
X11044761Y5931945D01*
Y5917662D01*
X11049521Y5908141D01*
X11054282Y5903380D01*
X11063804D01*
X11054282Y5955749D02*
X11040000Y5931945D01*
Y5912901D01*
X11044761Y5908141D01*
X11054282Y5903380D01*
X11139978Y5860056D02*
X11135218Y5874338D01*
X11120935Y5883860D01*
X11097130Y5888621D01*
X11082848D01*
X11059043Y5883860D01*
X11044761Y5874338D01*
X11040000Y5860056D01*
Y5850534D01*
X11044761Y5836251D01*
X11059043Y5826730D01*
X11082848Y5821969D01*
X11097130D01*
X11120935Y5826730D01*
X11135218Y5836251D01*
X11139978Y5850534D01*
Y5860056D01*
X11135218Y5869577D01*
X11130457Y5874338D01*
X11120935Y5879099D01*
X11097130Y5883860D01*
X11082848D01*
X11059043Y5879099D01*
X11049521Y5874338D01*
X11044761Y5869577D01*
X11040000Y5860056D01*
Y5850534D02*
X11044761Y5841012D01*
X11049521Y5836251D01*
X11059043Y5831490D01*
X11082848Y5826730D01*
X11097130D01*
X11120935Y5831490D01*
X11130457Y5836251D01*
X11135218Y5841012D01*
X11139978Y5850534D01*
X11120935Y5807210D02*
X11125696Y5797688D01*
X11139978Y5783406D01*
X11040000D01*
X11135218Y5788166D02*
X11040000D01*
Y5807210D02*
Y5764362D01*
X11139978Y5747223D02*
X11111413D01*
X11120935D02*
X11130457Y5742462D01*
X11139978Y5732940D01*
Y5723418D01*
X11125696Y5699614D01*
Y5690092D01*
X11130457Y5685331D01*
X11139978Y5680570D01*
X11130457Y5742462D02*
X11135218Y5732940D01*
Y5723418D01*
X11125696Y5699614D01*
X11139978Y5680570D02*
X11125696D01*
X11111413Y5685331D01*
X11087609Y5704375D01*
X11078087Y5709136D01*
X11063804Y5713896D01*
X11040000D01*
X11111413Y5685331D02*
X11087609Y5709136D01*
X11078087Y5713896D01*
X11063804Y5718657D01*
X11040000D01*
Y5661051D02*
X11044761Y5665812D01*
X11049521Y5661051D01*
X11044761Y5656290D01*
X11035239D01*
X11025717Y5661051D01*
X11020956Y5665812D01*
X11139978Y5502989D02*
X11040000Y5536316D01*
X11139978Y5502989D02*
X11040000Y5469663D01*
X11125696Y5502989D02*
X11040000Y5474424D01*
X11068565Y5526794D02*
Y5483946D01*
X11040000Y5545837D02*
Y5517272D01*
Y5488707D02*
Y5460141D01*
X11106652Y5433004D02*
X11054282D01*
X11044761Y5428243D01*
X11040000Y5413960D01*
Y5404439D01*
X11044761Y5390156D01*
X11054282Y5380634D01*
X11106652Y5428243D02*
X11054282D01*
X11044761Y5423482D01*
X11040000Y5413960D01*
X11106652Y5380634D02*
X11040000D01*
X11106652Y5375873D02*
X11040000D01*
X11106652Y5447287D02*
Y5428243D01*
Y5394917D02*
Y5375873D01*
X11040000Y5380634D02*
Y5361591D01*
X11097130Y5301127D02*
X11106652Y5296367D01*
X11087609D01*
X11097130Y5301127D01*
X11101891Y5305888D01*
X11106652Y5315410D01*
Y5334454D01*
X11101891Y5343975D01*
X11097130Y5348736D01*
X11087609D01*
X11082848Y5343975D01*
X11078087Y5334454D01*
X11068565Y5310649D01*
X11063804Y5301127D01*
X11059043Y5296367D01*
X11092369Y5348736D02*
X11087609Y5343975D01*
X11082848Y5334454D01*
X11073326Y5310649D01*
X11068565Y5301127D01*
X11063804Y5296367D01*
X11049521D01*
X11044761Y5301127D01*
X11040000Y5310649D01*
Y5329693D01*
X11044761Y5339215D01*
X11049521Y5343975D01*
X11059043Y5348736D01*
X11040000D01*
X11049521Y5343975D01*
X11040000Y5251614D02*
X11044761Y5256375D01*
X11059043Y5261136D01*
X11139978D01*
Y5265897D01*
X11059043D01*
X11044761Y5261136D01*
X11040000Y5251614D01*
Y5242092D01*
X11044761Y5232570D01*
X11054282Y5227810D01*
X11106652Y5280179D02*
Y5242092D01*
Y5197340D02*
X11040000D01*
X11106652Y5192579D02*
X11040000D01*
X11078087D02*
X11092369Y5187818D01*
X11101891Y5178296D01*
X11106652Y5168775D01*
Y5154492D01*
X11101891Y5149731D01*
X11097130D01*
X11092369Y5154492D01*
X11097130Y5159253D01*
X11101891Y5154492D01*
X11106652Y5211623D02*
Y5192579D01*
X11040000Y5211623D02*
Y5178296D01*
X11097130Y5124975D02*
X11092369D01*
Y5129735D01*
X11097130D01*
X11101891Y5124975D01*
X11106652Y5115453D01*
Y5096409D01*
X11101891Y5086887D01*
X11097130Y5082126D01*
X11087609Y5077366D01*
X11054282D01*
X11044761Y5072605D01*
X11040000Y5067844D01*
X11097130Y5082126D02*
X11054282D01*
X11044761Y5077366D01*
X11040000Y5067844D01*
Y5063083D01*
X11087609Y5082126D02*
X11082848Y5086887D01*
X11078087Y5115453D01*
X11073326Y5129735D01*
X11063804Y5134496D01*
X11054282D01*
X11044761Y5129735D01*
X11040000Y5115453D01*
Y5101170D01*
X11044761Y5091648D01*
X11054282Y5082126D01*
X11078087Y5115453D02*
X11073326Y5124975D01*
X11063804Y5129735D01*
X11054282D01*
X11044761Y5124975D01*
X11040000Y5115453D01*
X11139978Y5034517D02*
X11040000D01*
X11139978Y5029757D02*
X11040000D01*
X11139978Y5048800D02*
Y5029757D01*
X11040000Y5048800D02*
Y5015474D01*
X11139978Y4983100D02*
X11135218Y4987861D01*
X11130457Y4983100D01*
X11135218Y4978339D01*
X11139978Y4983100D01*
X11106652D02*
X11040000D01*
X11106652Y4978339D02*
X11040000D01*
X11106652Y4997383D02*
Y4978339D01*
X11040000Y4997383D02*
Y4964056D01*
X11097130Y4936444D02*
X11092369D01*
Y4941204D01*
X11097130D01*
X11101891Y4936444D01*
X11106652Y4926922D01*
Y4907878D01*
X11101891Y4898356D01*
X11097130Y4893595D01*
X11087609Y4888835D01*
X11054282D01*
X11044761Y4884074D01*
X11040000Y4879313D01*
X11097130Y4893595D02*
X11054282D01*
X11044761Y4888835D01*
X11040000Y4879313D01*
Y4874552D01*
X11087609Y4893595D02*
X11082848Y4898356D01*
X11078087Y4926922D01*
X11073326Y4941204D01*
X11063804Y4945965D01*
X11054282D01*
X11044761Y4941204D01*
X11040000Y4926922D01*
Y4912639D01*
X11044761Y4903117D01*
X11054282Y4893595D01*
X11078087Y4926922D02*
X11073326Y4936444D01*
X11063804Y4941204D01*
X11054282D01*
X11044761Y4936444D01*
X11040000Y4926922D01*
D87*
X12810001Y5844000D02*
G03*
X12810001Y5844000I-37000J0D01*
G01*
X15439999Y4880000D02*
Y5360000D01*
Y4880000D02*
X15980000D01*
Y5360000D01*
X15439999D02*
X15980000D01*
X13385001Y6764999D02*
Y6944999D01*
X13064999D02*
X13385001D01*
X13064999Y6764999D02*
Y6944999D01*
Y6764999D02*
X13385001D01*
X11600000Y5020000D02*
X12680000D01*
Y6100000D01*
X11600000D02*
X12680000D01*
X11600000Y5020000D02*
Y6100000D01*
X14550000Y5202351D02*
Y5050000D01*
X14651567D01*
X14803918D02*
X14702351D01*
X14803918Y5151567D01*
Y5176959D01*
X14778526Y5202351D01*
X14727744D01*
X14702351Y5176959D01*
X11560000Y4500000D02*
Y4629958D01*
X11624979D01*
X11646639Y4608298D01*
Y4564979D01*
X11624979Y4543319D01*
X11560000D01*
X11776597Y4500000D02*
X11689958D01*
X11776597Y4586639D01*
Y4608298D01*
X11754937Y4629958D01*
X11711618D01*
X11689958Y4608298D01*
X13000000Y4490000D02*
Y4619958D01*
X13064980D01*
X13086639Y4598298D01*
Y4554979D01*
X13064980Y4533319D01*
X13000000D01*
X13129958Y4490000D02*
X13173277D01*
X13151617D01*
Y4619958D01*
X13129958Y4598298D01*
X12050000Y5652351D02*
Y5500000D01*
X12151567D01*
X12202351D02*
X12253134D01*
X12227743D01*
Y5652351D01*
X12202351Y5626959D01*
X16048433Y6587649D02*
X16099216D01*
X16073825D01*
Y6714608D01*
X16099216Y6740000D01*
X16124608D01*
X16150000Y6714608D01*
X15997649Y6740000D02*
X15946866D01*
X15972256D01*
Y6587649D01*
X15997649Y6613041D01*
D88*
X14039999Y4480000D02*
Y5760000D01*
Y4480000D02*
X15320000D01*
Y5760000D01*
X14039999D02*
X15320000D01*
%TF.MD5,e02b1c07e5c5bf68d20d9d91717505dd*%
M02*
