G04 Layer_Color=16711935*
%FSLAX45Y45*%
%MOMM*%
%TF.FileFunction,Soldermask,Bot*%
%TF.Part,Single*%
G01*
G75*
%TA.AperFunction,ComponentPad*%
G04:AMPARAMS|DCode=77|XSize=5.2mm|YSize=5.2mm|CornerRadius=0mm|HoleSize=0mm|Usage=FLASHONLY|Rotation=180.000|XOffset=0mm|YOffset=0mm|HoleType=Round|Shape=Octagon|*
%AMOCTAGOND77*
4,1,8,-2.60000,1.30000,-2.60000,-1.30000,-1.30000,-2.60000,1.30000,-2.60000,2.60000,-1.30000,2.60000,1.30000,1.30000,2.60000,-1.30000,2.60000,-2.60000,1.30000,0.0*
%
%ADD77OCTAGOND77*%

G04:AMPARAMS|DCode=78|XSize=1.8mm|YSize=1.8mm|CornerRadius=0mm|HoleSize=0mm|Usage=FLASHONLY|Rotation=270.000|XOffset=0mm|YOffset=0mm|HoleType=Round|Shape=Octagon|*
%AMOCTAGOND78*
4,1,8,-0.45000,-0.90000,0.45000,-0.90000,0.90000,-0.45000,0.90000,0.45000,0.45000,0.90000,-0.45000,0.90000,-0.90000,0.45000,-0.90000,-0.45000,-0.45000,-0.90000,0.0*
%
%ADD78OCTAGOND78*%

%ADD79O,1.70000X2.20000*%
%ADD80R,1.70000X2.20000*%
%ADD81C,4.70000*%
%TA.AperFunction,ViaPad*%
%ADD82C,1.00000*%
%ADD83C,1.40000*%
D77*
X12690000Y4560000D02*
D03*
X13489999D02*
D03*
X11270000D02*
D03*
X12070000D02*
D03*
D78*
X12900000Y5717000D02*
D03*
Y5463000D02*
D03*
D79*
X15010001Y6920000D02*
D03*
X15460001D02*
D03*
X15260001D02*
D03*
D80*
X15710001D02*
D03*
D81*
X16017000Y7191000D02*
D03*
X14703000D02*
D03*
D82*
X15710001Y5045000D02*
D03*
Y5195000D02*
D03*
X15560001D02*
D03*
Y5045000D02*
D03*
X15860001D02*
D03*
Y5195000D02*
D03*
X13230000Y7110000D02*
D03*
X13460001Y7170000D02*
D03*
D83*
X12440000Y5120000D02*
D03*
X14870000Y5360000D02*
D03*
X13600000Y6830000D02*
D03*
X13880000Y5080000D02*
D03*
X16180000Y4630000D02*
D03*
X16060001Y4530000D02*
D03*
X16180000Y4910000D02*
D03*
X16060001Y5360000D02*
D03*
X16170000Y5490000D02*
D03*
X16039999Y5870000D02*
D03*
X11830000Y6530000D02*
D03*
X11730000Y6970000D02*
D03*
X11330000Y6210000D02*
D03*
X12540000Y6420000D02*
D03*
X13270000Y5380000D02*
D03*
X15400000Y6400000D02*
D03*
Y6190000D02*
D03*
X15510001Y4680000D02*
D03*
X16039999Y5050000D02*
D03*
X13730000Y6920000D02*
D03*
X12700000Y6810000D02*
D03*
Y7200000D02*
D03*
X15710001Y5850000D02*
D03*
X15389999D02*
D03*
X15130000Y6680000D02*
D03*
X15650000Y6660000D02*
D03*
X13630000Y6320000D02*
D03*
X13910001Y5510000D02*
D03*
X13710001Y5730000D02*
D03*
X13850000D02*
D03*
X13120000Y5080000D02*
D03*
X12839999Y5120000D02*
D03*
X13280000Y5800000D02*
D03*
X13130000Y5830000D02*
D03*
X15039999Y5500000D02*
D03*
X14700000Y6300000D02*
D03*
X14480000D02*
D03*
X14589999Y5870000D02*
D03*
X14710001Y5740000D02*
D03*
X14460001Y6140000D02*
D03*
Y5980000D02*
D03*
Y6460000D02*
D03*
X13489999Y6450000D02*
D03*
X11100000Y7340000D02*
D03*
Y7200000D02*
D03*
Y7060000D02*
D03*
X16180000Y4360000D02*
D03*
X11210000Y6060000D02*
D03*
X11630000D02*
D03*
X11780000D02*
D03*
X12040000Y6790000D02*
D03*
X11870000D02*
D03*
X12480000D02*
D03*
Y6940000D02*
D03*
X11260000Y6740000D02*
D03*
Y6870000D02*
D03*
X14660001Y6790000D02*
D03*
X13160001Y6310000D02*
D03*
X15000000Y4610000D02*
D03*
X13920000Y5880000D02*
D03*
%TF.MD5,66df9de4486a7c4d232848182902fd38*%
M02*
