G04 Layer_Physical_Order=2*
G04 Layer_Color=16711680*
%FSLAX45Y45*%
%MOMM*%
%TF.FileFunction,Copper,L2,Bot,Signal*%
%TF.Part,Single*%
G01*
G75*
%TA.AperFunction,Conductor*%
%ADD32C,0.25000*%
%ADD33C,0.30000*%
%ADD34C,0.50000*%
%ADD38C,1.00000*%
%ADD40C,1.20000*%
%TA.AperFunction,ComponentPad*%
G04:AMPARAMS|DCode=43|XSize=5mm|YSize=5mm|CornerRadius=0mm|HoleSize=0mm|Usage=FLASHONLY|Rotation=180.000|XOffset=0mm|YOffset=0mm|HoleType=Round|Shape=Octagon|*
%AMOCTAGOND43*
4,1,8,-2.50000,1.25000,-2.50000,-1.25000,-1.25000,-2.50000,1.25000,-2.50000,2.50000,-1.25000,2.50000,1.25000,1.25000,2.50000,-1.25000,2.50000,-2.50000,1.25000,0.0*
%
%ADD43OCTAGOND43*%

G04:AMPARAMS|DCode=44|XSize=1.6mm|YSize=1.6mm|CornerRadius=0mm|HoleSize=0mm|Usage=FLASHONLY|Rotation=270.000|XOffset=0mm|YOffset=0mm|HoleType=Round|Shape=Octagon|*
%AMOCTAGOND44*
4,1,8,-0.40000,-0.80000,0.40000,-0.80000,0.80000,-0.40000,0.80000,0.40000,0.40000,0.80000,-0.40000,0.80000,-0.80000,0.40000,-0.80000,-0.40000,-0.40000,-0.80000,0.0*
%
%ADD44OCTAGOND44*%

%ADD45O,1.50000X2.00000*%
%ADD46R,1.50000X2.00000*%
%ADD47C,4.50000*%
%TA.AperFunction,ViaPad*%
%ADD48C,0.80000*%
%ADD49C,1.20000*%
%ADD50C,1.27000*%
G36*
X15886449Y7399022D02*
X15880228Y7395696D01*
X15842921Y7365079D01*
X15812305Y7327773D01*
X15789554Y7285211D01*
X15775545Y7239028D01*
X15770815Y7191000D01*
X15775545Y7142971D01*
X15789554Y7096789D01*
X15812305Y7054226D01*
X15842921Y7016920D01*
X15880228Y6986304D01*
X15922789Y6963554D01*
X15968971Y6949545D01*
X16017000Y6944814D01*
X16065028Y6949545D01*
X16111211Y6963554D01*
X16153773Y6986304D01*
X16191080Y7016920D01*
X16221696Y7054226D01*
X16229022Y7067932D01*
X16249022Y7062923D01*
X16249022Y5551284D01*
X16229022Y5544495D01*
X16227055Y5547056D01*
X16210345Y5559879D01*
X16190884Y5567940D01*
X16170000Y5570690D01*
X16149117Y5567940D01*
X16129655Y5559879D01*
X16112943Y5547056D01*
X16112042Y5545881D01*
X15105630D01*
X15097057Y5557056D01*
X15080345Y5569880D01*
X15060884Y5577941D01*
X15039999Y5580690D01*
X15019116Y5577941D01*
X14999655Y5569880D01*
X14982944Y5557056D01*
X14970120Y5540345D01*
X14962059Y5520884D01*
X14959309Y5500000D01*
X14962059Y5479116D01*
X14970120Y5459655D01*
X14982944Y5442943D01*
X14999655Y5430120D01*
X15009888Y5425881D01*
X15005910Y5405881D01*
X14935632D01*
X14927057Y5417056D01*
X14910345Y5429880D01*
X14890884Y5437941D01*
X14870000Y5440690D01*
X14849117Y5437941D01*
X14829655Y5429880D01*
X14812943Y5417056D01*
X14800121Y5400345D01*
X14792059Y5380884D01*
X14789310Y5360000D01*
X14792059Y5339116D01*
X14800121Y5319655D01*
X14812943Y5302943D01*
X14829655Y5290120D01*
X14849117Y5282059D01*
X14870000Y5279310D01*
X14890884Y5282059D01*
X14910345Y5290120D01*
X14927057Y5302943D01*
X14935631Y5314118D01*
X15994370D01*
X16002943Y5302943D01*
X16019655Y5290120D01*
X16039116Y5282059D01*
X16060001Y5279309D01*
X16080884Y5282059D01*
X16100345Y5290120D01*
X16117056Y5302943D01*
X16129880Y5319655D01*
X16137941Y5339116D01*
X16140691Y5360000D01*
X16137941Y5380884D01*
X16130862Y5397972D01*
X16134801Y5404844D01*
X16144695Y5413890D01*
X16149117Y5412059D01*
X16170000Y5409309D01*
X16190884Y5412059D01*
X16210345Y5420120D01*
X16227055Y5432943D01*
X16229022Y5435504D01*
X16249022Y5428715D01*
X16249022Y4290978D01*
X13653101D01*
X13644817Y4310978D01*
X13754419Y4420580D01*
X13754419Y4420581D01*
X13758839Y4427196D01*
X13760393Y4435000D01*
Y4685000D01*
X13758839Y4692804D01*
X13754419Y4699419D01*
X13629420Y4824419D01*
X13629419Y4824419D01*
X13622804Y4828840D01*
X13614999Y4830392D01*
X13364999D01*
X13357196Y4828840D01*
X13350581Y4824419D01*
X13225581Y4699420D01*
X13225581Y4699419D01*
X13221159Y4692804D01*
X13219608Y4685000D01*
Y4435000D01*
X13221159Y4427196D01*
X13225581Y4420581D01*
X13335184Y4310978D01*
X13326900Y4290978D01*
X12233101D01*
X12224817Y4310978D01*
X12334419Y4420580D01*
X12334419Y4420581D01*
X12338840Y4427196D01*
X12340392Y4435000D01*
Y4685000D01*
X12338840Y4692804D01*
X12334419Y4699419D01*
X12209420Y4824419D01*
X12209419Y4824419D01*
X12202804Y4828840D01*
X12195000Y4830392D01*
X11945000D01*
X11937196Y4828840D01*
X11930581Y4824419D01*
X11805581Y4699420D01*
X11805581Y4699419D01*
X11801160Y4692804D01*
X11799608Y4685000D01*
Y4435000D01*
X11801160Y4427196D01*
X11805581Y4420581D01*
X11915184Y4310978D01*
X11906899Y4290978D01*
X11020978D01*
X11020977Y7419021D01*
X14567439Y7419022D01*
X14572449Y7399022D01*
X14566228Y7395696D01*
X14528922Y7365079D01*
X14498305Y7327773D01*
X14475554Y7285211D01*
X14461545Y7239028D01*
X14456815Y7191000D01*
X14461545Y7142971D01*
X14475554Y7096789D01*
X14498305Y7054227D01*
X14482625Y7042262D01*
X14392442Y7132443D01*
X14377557Y7142389D01*
X14360001Y7145882D01*
X13910001D01*
X13892442Y7142389D01*
X13877557Y7132443D01*
X13743965Y6998851D01*
X13730000Y7000690D01*
X13709116Y6997941D01*
X13689655Y6989880D01*
X13672943Y6977056D01*
X13660120Y6960345D01*
X13652058Y6940884D01*
X13649310Y6920000D01*
X13652058Y6899116D01*
X13660120Y6879655D01*
X13672943Y6862943D01*
X13689655Y6850120D01*
X13709116Y6842059D01*
X13730000Y6839310D01*
X13750883Y6842059D01*
X13770345Y6850120D01*
X13787056Y6862943D01*
X13799879Y6879655D01*
X13807941Y6899116D01*
X13810690Y6920000D01*
X13808852Y6933965D01*
X13929005Y7054118D01*
X14340994D01*
X14517557Y6877557D01*
X14532442Y6867611D01*
X14550000Y6864118D01*
X14750995D01*
X14967557Y6647557D01*
X14982442Y6637611D01*
X15000000Y6634119D01*
X15064369D01*
X15072943Y6622944D01*
X15089655Y6610120D01*
X15109116Y6602059D01*
X15130000Y6599310D01*
X15150883Y6602059D01*
X15170345Y6610120D01*
X15187056Y6622944D01*
X15199879Y6639655D01*
X15207941Y6659116D01*
X15210690Y6680000D01*
X15207941Y6700884D01*
X15199879Y6720345D01*
X15187056Y6737057D01*
X15170345Y6749880D01*
X15150883Y6757941D01*
X15130000Y6760690D01*
X15109116Y6757941D01*
X15089655Y6749880D01*
X15072943Y6737057D01*
X15064369Y6725882D01*
X15019005D01*
X14802443Y6942443D01*
X14800592Y6943680D01*
X14799461Y6950332D01*
X14802565Y6966416D01*
X14839774Y6986304D01*
X14877078Y7016920D01*
X14907697Y7054226D01*
X14930446Y7096789D01*
X14944455Y7142971D01*
X14949185Y7191000D01*
X14944455Y7239028D01*
X14930446Y7285211D01*
X14907697Y7327773D01*
X14877078Y7365079D01*
X14839774Y7395696D01*
X14833551Y7399022D01*
X14838560Y7419022D01*
X15881439D01*
X15886449Y7399022D01*
D02*
G37*
%LPC*%
G36*
X12939999Y5817392D02*
X12860001D01*
X12852197Y5815840D01*
X12845581Y5811419D01*
X12805582Y5771420D01*
X12805582Y5771419D01*
X12801161Y5764804D01*
X12799608Y5757000D01*
Y5677000D01*
X12801161Y5669196D01*
X12805582Y5662581D01*
X12845580Y5622582D01*
X12845581Y5622581D01*
X12852197Y5618160D01*
X12860001Y5616608D01*
X12939999D01*
X12947804Y5618160D01*
X12954419Y5622581D01*
X12994418Y5662580D01*
X12994418Y5662581D01*
X12998840Y5669196D01*
X13000392Y5677000D01*
Y5757000D01*
X12998840Y5764804D01*
X12994418Y5771419D01*
X12954420Y5811418D01*
X12954419Y5811419D01*
X12947804Y5815840D01*
X12939999Y5817392D01*
D02*
G37*
G36*
X15400000Y6480690D02*
X15379115Y6477940D01*
X15359656Y6469879D01*
X15342943Y6457056D01*
X15330119Y6440345D01*
X15322060Y6420884D01*
X15319310Y6400000D01*
X15322060Y6379116D01*
X15330119Y6359655D01*
X15334119Y6354444D01*
Y6235555D01*
X15330119Y6230345D01*
X15322060Y6210884D01*
X15319310Y6190000D01*
X15322060Y6169115D01*
X15330119Y6149654D01*
X15342943Y6132943D01*
X15359656Y6120120D01*
X15379115Y6112059D01*
X15400000Y6109309D01*
X15420885Y6112059D01*
X15440344Y6120120D01*
X15457056Y6132943D01*
X15469881Y6149654D01*
X15477940Y6169115D01*
X15480690Y6190000D01*
X15477940Y6210884D01*
X15469881Y6230345D01*
X15457056Y6247056D01*
X15440344Y6259879D01*
X15425882Y6265870D01*
Y6324129D01*
X15440344Y6330120D01*
X15457056Y6342943D01*
X15469881Y6359655D01*
X15477940Y6379116D01*
X15480690Y6400000D01*
X15477940Y6420884D01*
X15469881Y6440345D01*
X15457056Y6457056D01*
X15440344Y6469879D01*
X15420885Y6477940D01*
X15400000Y6480690D01*
D02*
G37*
G36*
X15000000Y4690690D02*
X14979115Y4687941D01*
X14959656Y4679880D01*
X14942943Y4667056D01*
X14930119Y4650345D01*
X14922060Y4630884D01*
X14919310Y4610000D01*
X14922060Y4589116D01*
X14930119Y4569655D01*
X14942943Y4552943D01*
X14959656Y4540120D01*
X14979115Y4532059D01*
X15000000Y4529310D01*
X15013965Y4531148D01*
X15157558Y4387557D01*
X15172443Y4377611D01*
X15189999Y4374119D01*
X15950000D01*
X15967558Y4377611D01*
X15982443Y4387557D01*
X16046034Y4451148D01*
X16060001Y4449309D01*
X16080884Y4452059D01*
X16100345Y4460120D01*
X16117056Y4472943D01*
X16129880Y4489654D01*
X16137941Y4509115D01*
X16140691Y4530000D01*
X16137941Y4550884D01*
X16129880Y4570345D01*
X16117056Y4587056D01*
X16100345Y4599879D01*
X16080884Y4607940D01*
X16060001Y4610690D01*
X16039116Y4607940D01*
X16019655Y4599879D01*
X16002943Y4587056D01*
X15990120Y4570345D01*
X15982059Y4550884D01*
X15979311Y4530000D01*
X15981148Y4516034D01*
X15930997Y4465882D01*
X15209006D01*
X15078851Y4596035D01*
X15080690Y4610000D01*
X15077940Y4630884D01*
X15069881Y4650345D01*
X15057056Y4667056D01*
X15040344Y4679880D01*
X15020885Y4687941D01*
X15000000Y4690690D01*
D02*
G37*
G36*
X12839999Y5200690D02*
X12819116Y5197941D01*
X12799655Y5189880D01*
X12782943Y5177056D01*
X12774369Y5165881D01*
X12505631D01*
X12497057Y5177056D01*
X12480345Y5189880D01*
X12460884Y5197941D01*
X12440000Y5200690D01*
X12419116Y5197941D01*
X12399655Y5189880D01*
X12382943Y5177056D01*
X12370120Y5160345D01*
X12362059Y5140884D01*
X12359310Y5120000D01*
X12362059Y5099116D01*
X12370120Y5079655D01*
X12382943Y5062943D01*
X12399655Y5050120D01*
X12419116Y5042059D01*
X12440000Y5039310D01*
X12460884Y5042059D01*
X12480345Y5050120D01*
X12497057Y5062943D01*
X12505631Y5074118D01*
X12774369D01*
X12782943Y5062943D01*
X12799655Y5050120D01*
X12819116Y5042059D01*
X12839999Y5039310D01*
X12860884Y5042059D01*
X12880345Y5050120D01*
X12897057Y5062943D01*
X12909880Y5079655D01*
X12917941Y5099116D01*
X12920689Y5120000D01*
X12917941Y5140884D01*
X12909880Y5160345D01*
X12897057Y5177056D01*
X12880345Y5189880D01*
X12860884Y5197941D01*
X12839999Y5200690D01*
D02*
G37*
G36*
X15785001Y7040392D02*
X15635001D01*
X15627197Y7038840D01*
X15620581Y7034419D01*
X15616161Y7027804D01*
X15614607Y7020000D01*
Y6820000D01*
X15616161Y6812196D01*
X15620581Y6805580D01*
X15627197Y6801160D01*
X15635001Y6799608D01*
X15785001D01*
X15792804Y6801160D01*
X15799419Y6805580D01*
X15803841Y6812196D01*
X15805392Y6820000D01*
Y7020000D01*
X15803841Y7027804D01*
X15799419Y7034419D01*
X15792804Y7038840D01*
X15785001Y7040392D01*
D02*
G37*
G36*
X15460001Y7040820D02*
X15435201Y7037555D01*
X15412090Y7027982D01*
X15392245Y7012755D01*
X15377019Y6992910D01*
X15370824Y6977956D01*
X15349176D01*
X15342982Y6992910D01*
X15327754Y7012755D01*
X15307910Y7027982D01*
X15284801Y7037555D01*
X15260001Y7040820D01*
X15235201Y7037555D01*
X15212090Y7027982D01*
X15192245Y7012755D01*
X15177019Y6992910D01*
X15167445Y6969800D01*
X15164180Y6945000D01*
Y6895000D01*
X15167445Y6870200D01*
X15177019Y6847090D01*
X15192245Y6827245D01*
X15212090Y6812018D01*
X15235201Y6802445D01*
X15260001Y6799180D01*
X15284801Y6802445D01*
X15307910Y6812018D01*
X15327754Y6827245D01*
X15342982Y6847090D01*
X15349176Y6862044D01*
X15370824D01*
X15377019Y6847090D01*
X15392245Y6827245D01*
X15412090Y6812018D01*
X15435201Y6802445D01*
X15460001Y6799180D01*
X15484801Y6802445D01*
X15507910Y6812018D01*
X15527756Y6827245D01*
X15542982Y6847090D01*
X15552554Y6870200D01*
X15555820Y6895000D01*
Y6945000D01*
X15552554Y6969800D01*
X15542982Y6992910D01*
X15527756Y7012755D01*
X15507910Y7027982D01*
X15484801Y7037555D01*
X15460001Y7040820D01*
D02*
G37*
G36*
X11260000Y6950690D02*
X11239116Y6947941D01*
X11219655Y6939880D01*
X11202944Y6927057D01*
X11190120Y6910345D01*
X11182059Y6890884D01*
X11179310Y6870000D01*
Y6740000D01*
X11182059Y6719116D01*
X11189396Y6701403D01*
Y6580000D01*
X11191802Y6561726D01*
X11198855Y6544698D01*
X11210076Y6530075D01*
X11410075Y6330075D01*
X11424698Y6318855D01*
X11441726Y6311802D01*
X11460000Y6309396D01*
X11820755D01*
X12190075Y5940075D01*
X12204698Y5928855D01*
X12221726Y5921802D01*
X12240000Y5919396D01*
X13420755D01*
X13632784Y5707368D01*
X13640120Y5689655D01*
X13652943Y5672943D01*
X13664117Y5664369D01*
Y5569005D01*
X13220995Y5125882D01*
X13185631D01*
X13177055Y5137057D01*
X13160345Y5149880D01*
X13140884Y5157941D01*
X13120000Y5160690D01*
X13099117Y5157941D01*
X13079655Y5149880D01*
X13062943Y5137057D01*
X13050121Y5120345D01*
X13042059Y5100884D01*
X13039310Y5080000D01*
X13042059Y5059116D01*
X13050121Y5039655D01*
X13062943Y5022943D01*
X13079655Y5010120D01*
X13099117Y5002059D01*
X13120000Y4999310D01*
X13140884Y5002059D01*
X13160345Y5010120D01*
X13177055Y5022943D01*
X13185631Y5034118D01*
X13239999D01*
X13257558Y5037611D01*
X13272443Y5047557D01*
X13742442Y5517557D01*
X13752390Y5532442D01*
X13755882Y5550000D01*
Y5649310D01*
X13850000D01*
X13870885Y5652059D01*
X13890344Y5660120D01*
X13907057Y5672943D01*
X13919881Y5689655D01*
X13927940Y5709116D01*
X13930690Y5730000D01*
X13927940Y5750884D01*
X13919881Y5770345D01*
X13912363Y5780143D01*
X13917348Y5792654D01*
X13922272Y5799609D01*
X13940884Y5802059D01*
X13960345Y5810120D01*
X13977057Y5822943D01*
X13989880Y5839655D01*
X13997942Y5859116D01*
X14000690Y5880000D01*
X13997942Y5900884D01*
X13989880Y5920345D01*
X13977057Y5937056D01*
X13960345Y5949880D01*
X13940884Y5957941D01*
X13920000Y5960690D01*
X13906035Y5958851D01*
X13675880Y6189005D01*
Y6254369D01*
X13687056Y6262944D01*
X13699879Y6279655D01*
X13707941Y6299116D01*
X13710690Y6320000D01*
X13707941Y6340884D01*
X13699879Y6360345D01*
X13687056Y6377057D01*
X13670345Y6389880D01*
X13650883Y6397941D01*
X13630000Y6400690D01*
X13609116Y6397941D01*
X13589655Y6389880D01*
X13572943Y6377057D01*
X13560120Y6360345D01*
X13552058Y6340884D01*
X13549310Y6320000D01*
X13552058Y6299116D01*
X13560120Y6279655D01*
X13572943Y6262944D01*
X13584119Y6254369D01*
Y6170000D01*
X13587611Y6152442D01*
X13597557Y6137557D01*
X13841148Y5893965D01*
X13839310Y5880000D01*
X13842059Y5859116D01*
X13850121Y5839655D01*
X13857639Y5829857D01*
X13852583Y5817175D01*
X13847212Y5810690D01*
X13729160D01*
X13499924Y6039924D01*
X13485303Y6051145D01*
X13468274Y6058198D01*
X13450000Y6060604D01*
X12269245D01*
X11899924Y6429924D01*
X11885302Y6441145D01*
X11879786Y6443429D01*
X11879635Y6443696D01*
X11877850Y6465879D01*
X11887057Y6472944D01*
X11895632Y6484119D01*
X12410995D01*
X12461149Y6433965D01*
X12459310Y6420000D01*
X12462060Y6399116D01*
X12470121Y6379655D01*
X12482944Y6362944D01*
X12499655Y6350120D01*
X12519116Y6342059D01*
X12540000Y6339310D01*
X12560884Y6342059D01*
X12580345Y6350120D01*
X12597057Y6362944D01*
X12609880Y6379655D01*
X12617941Y6399116D01*
X12620691Y6420000D01*
X12617941Y6440884D01*
X12609880Y6460345D01*
X12597057Y6477057D01*
X12580345Y6489880D01*
X12560884Y6497941D01*
X12540000Y6500690D01*
X12526035Y6498852D01*
X12462443Y6562443D01*
X12447559Y6572389D01*
X12430000Y6575882D01*
X11895632D01*
X11887057Y6587057D01*
X11870345Y6599880D01*
X11850884Y6607941D01*
X11830000Y6610690D01*
X11809116Y6607941D01*
X11789655Y6599880D01*
X11772944Y6587057D01*
X11760120Y6570345D01*
X11752060Y6550884D01*
X11749310Y6530000D01*
X11752060Y6509116D01*
X11760120Y6489655D01*
X11772944Y6472944D01*
X11775993Y6470604D01*
X11769204Y6450604D01*
X11489245D01*
X11330604Y6609245D01*
Y6701403D01*
X11337941Y6719116D01*
X11340690Y6740000D01*
Y6870000D01*
X11337941Y6890884D01*
X11329880Y6910345D01*
X11317057Y6927057D01*
X11300345Y6939880D01*
X11280884Y6947941D01*
X11260000Y6950690D01*
D02*
G37*
G36*
X12700000Y7280690D02*
X12679116Y7277941D01*
X12659655Y7269880D01*
X12642943Y7257057D01*
X12634369Y7245882D01*
X11960000D01*
X11942442Y7242389D01*
X11927557Y7232443D01*
X11743965Y7048852D01*
X11730000Y7050690D01*
X11709116Y7047941D01*
X11689655Y7039880D01*
X11672944Y7027057D01*
X11660120Y7010345D01*
X11652060Y6990884D01*
X11649310Y6970000D01*
X11652060Y6949116D01*
X11660120Y6929655D01*
X11672944Y6912944D01*
X11689655Y6900120D01*
X11709116Y6892059D01*
X11730000Y6889310D01*
X11750884Y6892059D01*
X11770345Y6900120D01*
X11787057Y6912944D01*
X11799880Y6929655D01*
X11807941Y6949116D01*
X11810690Y6970000D01*
X11808852Y6983965D01*
X11979005Y7154119D01*
X12634369D01*
X12642943Y7142944D01*
X12654118Y7134369D01*
Y6875631D01*
X12642943Y6867057D01*
X12630120Y6850345D01*
X12622059Y6830884D01*
X12619310Y6810000D01*
X12622059Y6789116D01*
X12630120Y6769655D01*
X12642943Y6752944D01*
X12659655Y6740120D01*
X12679116Y6732059D01*
X12700000Y6729310D01*
X12720884Y6732059D01*
X12740345Y6740120D01*
X12757057Y6752944D01*
X12769880Y6769655D01*
X12777941Y6789116D01*
X12780690Y6810000D01*
X12777941Y6830884D01*
X12769880Y6850345D01*
X12757057Y6867057D01*
X12745882Y6875631D01*
Y7134369D01*
X12757057Y7142944D01*
X12769880Y7159655D01*
X12777941Y7179116D01*
X12780690Y7200000D01*
X12777941Y7220884D01*
X12769880Y7240345D01*
X12757057Y7257057D01*
X12740345Y7269880D01*
X12720884Y7277941D01*
X12700000Y7280690D01*
D02*
G37*
%LPD*%
D32*
X11270000Y4560000D02*
X11630000Y4920000D01*
X12330000D02*
X12690000Y4560000D01*
X11630000Y4920000D02*
X12330000D01*
X11100000Y6440000D02*
X11330000Y6210000D01*
X11100000Y6440000D02*
Y7060000D01*
Y7200000D02*
X11380000D01*
X11550000Y7030000D01*
Y6870000D02*
Y7030000D01*
Y6870000D02*
X11630000Y6790000D01*
X11870000D01*
X12480000D02*
X12839999Y6430000D01*
X13220000D01*
X14030000Y6780000D02*
X14139999D01*
X14460001Y6460000D01*
X13970000Y6910000D02*
X13980000Y6900000D01*
X14380000Y5980000D02*
X14460001D01*
X13910001Y5510000D02*
X14380000Y5980000D01*
X15560001Y6520000D02*
X15650000Y6430000D01*
X15220000Y6520000D02*
X15560001D01*
X15000000Y6300000D02*
X15220000Y6520000D01*
X14700000Y6300000D02*
X15000000D01*
X13120000Y5380000D02*
X13130000Y5390000D01*
Y5830000D01*
X13120000Y5380000D02*
X13270000D01*
X12989999Y5250000D02*
X13120000Y5380000D01*
X12989999Y4860000D02*
Y5250000D01*
X12690000Y4560000D02*
X12989999Y4860000D01*
X14710001Y5740000D02*
X14720000Y5730000D01*
Y5310000D02*
Y5730000D01*
Y5310000D02*
X14835001Y5195000D01*
X15560001D01*
X15710001Y5850000D02*
X15730000Y5870000D01*
X16039999D01*
X15650000Y5910000D02*
X15710001Y5850000D01*
X15650000Y5910000D02*
Y6300000D01*
X13880000Y5080000D02*
Y5370000D01*
D33*
X13230000Y6570000D02*
Y7110000D01*
Y6570000D02*
X13350000Y6450000D01*
X13650000Y6780000D02*
X14030000D01*
X13600000Y6830000D02*
X13650000Y6780000D01*
D34*
X11960000Y7200000D02*
X12700000D01*
X11730000Y6970000D02*
X11960000Y7200000D01*
X12700000Y6810000D02*
Y7200000D01*
X12430000Y6530000D02*
X12540000Y6420000D01*
X11830000Y6530000D02*
X12430000D01*
X13630000Y6170000D02*
X13920000Y5880000D01*
X13630000Y6170000D02*
Y6320000D01*
X15380000Y6380000D02*
X15400000Y6400000D01*
X15380000Y6210000D02*
Y6380000D01*
Y6210000D02*
X15400000Y6190000D01*
X12440000Y5120000D02*
X12839999D01*
X14870000Y5360000D02*
X14870000Y5360000D01*
X16060001D01*
X15039999Y5500000D02*
X16160001D01*
X16170000Y5490000D01*
X15000000Y6680000D02*
X15130000D01*
X14770000Y6910000D02*
X15000000Y6680000D01*
X14550000Y6910000D02*
X14770000D01*
X14360001Y7100000D02*
X14550000Y6910000D01*
X13910001Y7100000D02*
X14360001D01*
X13730000Y6920000D02*
X13910001Y7100000D01*
X13120000Y5080000D02*
X13239999D01*
X13710001Y5550000D01*
Y5730000D01*
X13400000Y4560000D02*
X13489999D01*
X15950000Y4420000D02*
X16060001Y4530000D01*
X15189999Y4420000D02*
X15950000D01*
X15000000Y4610000D02*
X15189999Y4420000D01*
D38*
X13450000Y5990000D02*
X13710001Y5730000D01*
X12240000Y5990000D02*
X13450000D01*
X11850000Y6380000D02*
X12240000Y5990000D01*
X11460000Y6380000D02*
X11850000D01*
X11260000Y6580000D02*
X11460000Y6380000D01*
X11260000Y6580000D02*
Y6740000D01*
D40*
Y6870000D01*
X13710001Y5730000D02*
X13850000D01*
D43*
X12690000Y4560000D02*
D03*
X13489999D02*
D03*
X11270000D02*
D03*
X12070000D02*
D03*
D44*
X12900000Y5717000D02*
D03*
Y5463000D02*
D03*
D45*
X15010001Y6920000D02*
D03*
X15460001D02*
D03*
X15260001D02*
D03*
D46*
X15710001D02*
D03*
D47*
X16017000Y7191000D02*
D03*
X14703000D02*
D03*
D48*
X15710001Y5045000D02*
D03*
Y5195000D02*
D03*
X15560001D02*
D03*
Y5045000D02*
D03*
X15860001D02*
D03*
Y5195000D02*
D03*
X13230000Y7110000D02*
D03*
X13225000Y6844999D02*
D03*
X13460001Y7170000D02*
D03*
D49*
X15600008Y7200004D02*
D03*
X15400008D02*
D03*
X15200008D02*
D03*
X14200008Y5600003D02*
D03*
X11600006Y4800003D02*
D03*
X11200006Y5600003D02*
D03*
X11300006Y5400003D02*
D03*
X12440000Y5120000D02*
D03*
X14870000Y5360000D02*
D03*
X13600000Y6830000D02*
D03*
X13880000Y5080000D02*
D03*
X16180000Y4630000D02*
D03*
X16060001Y4530000D02*
D03*
X16180000Y4770000D02*
D03*
Y4910000D02*
D03*
Y5050000D02*
D03*
X16060001Y5360000D02*
D03*
X16039999Y5190000D02*
D03*
X16170000Y5490000D02*
D03*
X16039999Y5870000D02*
D03*
X11830000Y6530000D02*
D03*
X11730000Y6970000D02*
D03*
X11470000Y6210000D02*
D03*
X11330000D02*
D03*
X11610000D02*
D03*
X11750000D02*
D03*
X12540000Y6420000D02*
D03*
X13270000Y5380000D02*
D03*
X15400000Y6400000D02*
D03*
Y6190000D02*
D03*
X15650000Y6430000D02*
D03*
Y6300000D02*
D03*
X15510001D02*
D03*
X15510001Y4680000D02*
D03*
X15370000D02*
D03*
X15360001Y4540000D02*
D03*
X16039999Y5050000D02*
D03*
Y4910000D02*
D03*
X14030000Y6780000D02*
D03*
X13730000Y6920000D02*
D03*
X13970000Y6910000D02*
D03*
X12700000Y6810000D02*
D03*
Y7200000D02*
D03*
X15710001Y5850000D02*
D03*
X15389999D02*
D03*
X15130000Y6680000D02*
D03*
X15650000Y6660000D02*
D03*
X13630000Y6320000D02*
D03*
X13880000Y5370000D02*
D03*
X13910001Y5510000D02*
D03*
X13710001Y5730000D02*
D03*
X13850000D02*
D03*
X13120000Y5080000D02*
D03*
X12839999Y5120000D02*
D03*
X13280000Y5800000D02*
D03*
X13130000Y5830000D02*
D03*
X15039999Y5500000D02*
D03*
X14700000Y6300000D02*
D03*
X14480000D02*
D03*
X14589999Y5870000D02*
D03*
X14710001Y5740000D02*
D03*
X14460001Y6140000D02*
D03*
X14589999Y6670000D02*
D03*
X14460001Y5980000D02*
D03*
Y6460000D02*
D03*
X13489999Y6450000D02*
D03*
X13350000D02*
D03*
X11100000Y7340000D02*
D03*
Y7200000D02*
D03*
Y7060000D02*
D03*
X15230000Y4730000D02*
D03*
Y4590000D02*
D03*
X16180000Y4360000D02*
D03*
X11210000Y6060000D02*
D03*
X11630000D02*
D03*
X11780000D02*
D03*
X12040000Y6790000D02*
D03*
X11870000D02*
D03*
X12480000D02*
D03*
Y6940000D02*
D03*
X11260000Y6740000D02*
D03*
Y6870000D02*
D03*
X14730000Y6670000D02*
D03*
X14660001Y6790000D02*
D03*
X13160001Y6310000D02*
D03*
X13220000Y6430000D02*
D03*
X15000000Y4610000D02*
D03*
X13920000Y5880000D02*
D03*
D50*
X14339999Y7320000D02*
D03*
X13950000D02*
D03*
%TF.MD5,184fefbf7ead241a236e7ddc4f5d17a8*%
M02*
